<mxfile host="app.diagrams.net" modified="2022-04-25T17:28:02.140Z" agent="5.0 (Windows NT 10.0; Win64; x64) AppleWebKit/537.36 (KHTML, like Gecko) Chrome/100.0.4896.127 Safari/537.36" etag="YTm2661k9QKO_Qf4UoMF" version="17.4.6" type="github">
  <diagram id="C5RBs43oDa-KdzZeNtuy" name="Page-1">
    <mxGraphModel dx="1456" dy="332" grid="1" gridSize="10" guides="1" tooltips="1" connect="1" arrows="1" fold="1" page="1" pageScale="1" pageWidth="827" pageHeight="1169" math="0" shadow="0">
      <root>
        <mxCell id="WIyWlLk6GJQsqaUBKTNV-0" />
        <mxCell id="WIyWlLk6GJQsqaUBKTNV-1" parent="WIyWlLk6GJQsqaUBKTNV-0" />
        <mxCell id="xSoCJTcvvkp1Ju8zFOZ0-0" value="ApplyTestController" style="swimlane;fontStyle=1;align=center;verticalAlign=top;childLayout=stackLayout;horizontal=1;startSize=26;horizontalStack=0;resizeParent=1;resizeParentMax=0;resizeLast=0;collapsible=1;marginBottom=0;" parent="WIyWlLk6GJQsqaUBKTNV-1" vertex="1">
          <mxGeometry x="-30" y="280" width="250" height="140" as="geometry">
            <mxRectangle x="310" y="120" width="150" height="26" as="alternateBounds" />
          </mxGeometry>
        </mxCell>
        <mxCell id="xSoCJTcvvkp1Ju8zFOZ0-1" value="+ applyTestService: ApplyTestService" style="text;strokeColor=none;fillColor=none;align=left;verticalAlign=top;spacingLeft=4;spacingRight=4;overflow=hidden;rotatable=0;points=[[0,0.5],[1,0.5]];portConstraint=eastwest;" parent="xSoCJTcvvkp1Ju8zFOZ0-0" vertex="1">
          <mxGeometry y="26" width="250" height="26" as="geometry" />
        </mxCell>
        <mxCell id="xSoCJTcvvkp1Ju8zFOZ0-2" value="" style="line;strokeWidth=1;fillColor=none;align=left;verticalAlign=middle;spacingTop=-1;spacingLeft=3;spacingRight=3;rotatable=0;labelPosition=right;points=[];portConstraint=eastwest;" parent="xSoCJTcvvkp1Ju8zFOZ0-0" vertex="1">
          <mxGeometry y="52" width="250" height="8" as="geometry" />
        </mxCell>
        <mxCell id="xSoCJTcvvkp1Ju8zFOZ0-3" value="+ applyTestCreate(map): CommonResult" style="text;strokeColor=none;fillColor=none;align=left;verticalAlign=top;spacingLeft=4;spacingRight=4;overflow=hidden;rotatable=0;points=[[0,0.5],[1,0.5]];portConstraint=eastwest;" parent="xSoCJTcvvkp1Ju8zFOZ0-0" vertex="1">
          <mxGeometry y="60" width="250" height="40" as="geometry" />
        </mxCell>
        <mxCell id="xSoCJTcvvkp1Ju8zFOZ0-7" value="+ applyTestRetrieve(map): CommonResult" style="text;strokeColor=none;fillColor=none;align=left;verticalAlign=top;spacingLeft=4;spacingRight=4;overflow=hidden;rotatable=0;points=[[0,0.5],[1,0.5]];portConstraint=eastwest;" parent="xSoCJTcvvkp1Ju8zFOZ0-0" vertex="1">
          <mxGeometry y="100" width="250" height="40" as="geometry" />
        </mxCell>
        <mxCell id="xSoCJTcvvkp1Ju8zFOZ0-24" style="edgeStyle=orthogonalEdgeStyle;rounded=0;orthogonalLoop=1;jettySize=auto;html=1;exitX=0.5;exitY=0;exitDx=0;exitDy=0;entryX=0.5;entryY=1;entryDx=0;entryDy=0;dashed=1;endArrow=block;endFill=0;" parent="WIyWlLk6GJQsqaUBKTNV-1" source="xSoCJTcvvkp1Ju8zFOZ0-12" target="xSoCJTcvvkp1Ju8zFOZ0-23" edge="1">
          <mxGeometry relative="1" as="geometry" />
        </mxCell>
        <mxCell id="xSoCJTcvvkp1Ju8zFOZ0-12" value="ApplyTestServiceImpl" style="swimlane;fontStyle=1;align=center;verticalAlign=top;childLayout=stackLayout;horizontal=1;startSize=26;horizontalStack=0;resizeParent=1;resizeParentMax=0;resizeLast=0;collapsible=1;marginBottom=0;" parent="WIyWlLk6GJQsqaUBKTNV-1" vertex="1">
          <mxGeometry x="325" y="470" width="220" height="110" as="geometry">
            <mxRectangle x="325" y="320" width="130" height="26" as="alternateBounds" />
          </mxGeometry>
        </mxCell>
        <mxCell id="xSoCJTcvvkp1Ju8zFOZ0-13" value="+ applyTestDao: ApplyTestDao" style="text;strokeColor=none;fillColor=none;align=left;verticalAlign=top;spacingLeft=4;spacingRight=4;overflow=hidden;rotatable=0;points=[[0,0.5],[1,0.5]];portConstraint=eastwest;" parent="xSoCJTcvvkp1Ju8zFOZ0-12" vertex="1">
          <mxGeometry y="26" width="220" height="26" as="geometry" />
        </mxCell>
        <mxCell id="xSoCJTcvvkp1Ju8zFOZ0-14" value="" style="line;strokeWidth=1;fillColor=none;align=left;verticalAlign=middle;spacingTop=-1;spacingLeft=3;spacingRight=3;rotatable=0;labelPosition=right;points=[];portConstraint=eastwest;" parent="xSoCJTcvvkp1Ju8zFOZ0-12" vertex="1">
          <mxGeometry y="52" width="220" height="8" as="geometry" />
        </mxCell>
        <mxCell id="xSoCJTcvvkp1Ju8zFOZ0-15" value="+ create(String,String): int" style="text;strokeColor=none;fillColor=none;align=left;verticalAlign=top;spacingLeft=4;spacingRight=4;overflow=hidden;rotatable=0;points=[[0,0.5],[1,0.5]];portConstraint=eastwest;" parent="xSoCJTcvvkp1Ju8zFOZ0-12" vertex="1">
          <mxGeometry y="60" width="220" height="26" as="geometry" />
        </mxCell>
        <mxCell id="xSoCJTcvvkp1Ju8zFOZ0-16" value="+ retrieve(String): List&lt;UserApplyTest&gt;" style="text;strokeColor=none;fillColor=none;align=left;verticalAlign=top;spacingLeft=4;spacingRight=4;overflow=hidden;rotatable=0;points=[[0,0.5],[1,0.5]];portConstraint=eastwest;" parent="xSoCJTcvvkp1Ju8zFOZ0-12" vertex="1">
          <mxGeometry y="86" width="220" height="24" as="geometry" />
        </mxCell>
        <mxCell id="xSoCJTcvvkp1Ju8zFOZ0-28" style="edgeStyle=orthogonalEdgeStyle;rounded=0;orthogonalLoop=1;jettySize=auto;html=1;entryX=0;entryY=0.5;entryDx=0;entryDy=0;startArrow=none;startFill=0;endArrow=open;endFill=0;dashed=1;" parent="WIyWlLk6GJQsqaUBKTNV-1" source="xSoCJTcvvkp1Ju8zFOZ0-18" target="xSoCJTcvvkp1Ju8zFOZ0-20" edge="1">
          <mxGeometry relative="1" as="geometry" />
        </mxCell>
        <mxCell id="xSoCJTcvvkp1Ju8zFOZ0-18" value="&lt;p style=&quot;margin: 0px ; margin-top: 4px ; text-align: center&quot;&gt;&lt;i&gt;&amp;lt;&amp;lt;Interface&amp;gt;&amp;gt;&lt;/i&gt;&lt;br&gt;&lt;span style=&quot;text-align: left&quot;&gt;&lt;b&gt;ApplyTestDao&lt;/b&gt;&lt;/span&gt;&lt;br&gt;&lt;/p&gt;&lt;p style=&quot;margin: 0px ; margin-top: 4px ; text-align: center&quot;&gt;&lt;b&gt;&lt;br&gt;&lt;/b&gt;&lt;/p&gt;&lt;hr size=&quot;1&quot;&gt;&lt;p style=&quot;margin: 0px ; margin-left: 4px&quot;&gt;+&amp;nbsp;create(String,String): int&lt;br&gt;+&amp;nbsp;retrieve(String):&amp;nbsp;List&amp;lt;UserApplyTest&amp;gt;&lt;br&gt;&lt;/p&gt;" style="verticalAlign=top;align=left;overflow=fill;fontSize=12;fontFamily=Helvetica;html=1;" parent="WIyWlLk6GJQsqaUBKTNV-1" vertex="1">
          <mxGeometry x="630" y="300" width="220" height="120" as="geometry" />
        </mxCell>
        <mxCell id="xSoCJTcvvkp1Ju8zFOZ0-19" value="UserApplyTest" style="swimlane;fontStyle=1;childLayout=stackLayout;horizontal=1;startSize=26;fillColor=none;horizontalStack=0;resizeParent=1;resizeParentMax=0;resizeLast=0;collapsible=1;marginBottom=0;" parent="WIyWlLk6GJQsqaUBKTNV-1" vertex="1">
          <mxGeometry x="900" y="321" width="140" height="78" as="geometry" />
        </mxCell>
        <mxCell id="xSoCJTcvvkp1Ju8zFOZ0-20" value="+ testLocation: String" style="text;strokeColor=none;fillColor=none;align=left;verticalAlign=top;spacingLeft=4;spacingRight=4;overflow=hidden;rotatable=0;points=[[0,0.5],[1,0.5]];portConstraint=eastwest;" parent="xSoCJTcvvkp1Ju8zFOZ0-19" vertex="1">
          <mxGeometry y="26" width="140" height="26" as="geometry" />
        </mxCell>
        <mxCell id="xSoCJTcvvkp1Ju8zFOZ0-21" value="+ QrCode: byte[]" style="text;strokeColor=none;fillColor=none;align=left;verticalAlign=top;spacingLeft=4;spacingRight=4;overflow=hidden;rotatable=0;points=[[0,0.5],[1,0.5]];portConstraint=eastwest;" parent="xSoCJTcvvkp1Ju8zFOZ0-19" vertex="1">
          <mxGeometry y="52" width="140" height="26" as="geometry" />
        </mxCell>
        <mxCell id="xSoCJTcvvkp1Ju8zFOZ0-23" value="&lt;p style=&quot;margin: 0px ; margin-top: 4px ; text-align: center&quot;&gt;&lt;i&gt;&amp;lt;&amp;lt;Interface&amp;gt;&amp;gt;&lt;/i&gt;&lt;br&gt;&lt;span style=&quot;text-align: left&quot;&gt;&lt;b&gt;ApplyTestService&lt;/b&gt;&lt;/span&gt;&lt;br&gt;&lt;/p&gt;&lt;br&gt;&lt;hr size=&quot;1&quot;&gt;&lt;p style=&quot;margin: 0px ; margin-left: 4px&quot;&gt;+&amp;nbsp;create(String,String): int&lt;br&gt;+&amp;nbsp;retrieve(String):&amp;nbsp;List&amp;lt;UserApplyTest&amp;gt;&lt;br&gt;&lt;/p&gt;" style="verticalAlign=top;align=left;overflow=fill;fontSize=12;fontFamily=Helvetica;html=1;" parent="WIyWlLk6GJQsqaUBKTNV-1" vertex="1">
          <mxGeometry x="320" y="305" width="230" height="110" as="geometry" />
        </mxCell>
        <mxCell id="xSoCJTcvvkp1Ju8zFOZ0-25" style="edgeStyle=orthogonalEdgeStyle;rounded=0;orthogonalLoop=1;jettySize=auto;html=1;exitX=1;exitY=0.5;exitDx=0;exitDy=0;entryX=0;entryY=0.5;entryDx=0;entryDy=0;endArrow=open;endFill=0;startArrow=diamond;startFill=1;" parent="WIyWlLk6GJQsqaUBKTNV-1" source="xSoCJTcvvkp1Ju8zFOZ0-3" target="xSoCJTcvvkp1Ju8zFOZ0-23" edge="1">
          <mxGeometry relative="1" as="geometry" />
        </mxCell>
        <mxCell id="xSoCJTcvvkp1Ju8zFOZ0-27" style="edgeStyle=orthogonalEdgeStyle;rounded=0;orthogonalLoop=1;jettySize=auto;html=1;exitX=1;exitY=0.5;exitDx=0;exitDy=0;entryX=0.5;entryY=1;entryDx=0;entryDy=0;startArrow=diamond;startFill=1;endArrow=open;endFill=0;" parent="WIyWlLk6GJQsqaUBKTNV-1" source="xSoCJTcvvkp1Ju8zFOZ0-15" target="xSoCJTcvvkp1Ju8zFOZ0-18" edge="1">
          <mxGeometry relative="1" as="geometry" />
        </mxCell>
        <mxCell id="xSoCJTcvvkp1Ju8zFOZ0-29" value="ApplyVolunteerController" style="swimlane;fontStyle=1;align=center;verticalAlign=top;childLayout=stackLayout;horizontal=1;startSize=26;horizontalStack=0;resizeParent=1;resizeParentMax=0;resizeLast=0;collapsible=1;marginBottom=0;" parent="WIyWlLk6GJQsqaUBKTNV-1" vertex="1">
          <mxGeometry x="-30" y="620" width="280" height="220" as="geometry">
            <mxRectangle x="310" y="120" width="150" height="26" as="alternateBounds" />
          </mxGeometry>
        </mxCell>
        <mxCell id="xSoCJTcvvkp1Ju8zFOZ0-30" value="+ applyVolunteerService: ApplyVolunteerService" style="text;strokeColor=none;fillColor=none;align=left;verticalAlign=top;spacingLeft=4;spacingRight=4;overflow=hidden;rotatable=0;points=[[0,0.5],[1,0.5]];portConstraint=eastwest;" parent="xSoCJTcvvkp1Ju8zFOZ0-29" vertex="1">
          <mxGeometry y="26" width="280" height="26" as="geometry" />
        </mxCell>
        <mxCell id="xSoCJTcvvkp1Ju8zFOZ0-31" value="" style="line;strokeWidth=1;fillColor=none;align=left;verticalAlign=middle;spacingTop=-1;spacingLeft=3;spacingRight=3;rotatable=0;labelPosition=right;points=[];portConstraint=eastwest;" parent="xSoCJTcvvkp1Ju8zFOZ0-29" vertex="1">
          <mxGeometry y="52" width="280" height="8" as="geometry" />
        </mxCell>
        <mxCell id="xSoCJTcvvkp1Ju8zFOZ0-32" value="+ applyVolunteerCreate(map): CommonResult" style="text;strokeColor=none;fillColor=none;align=left;verticalAlign=top;spacingLeft=4;spacingRight=4;overflow=hidden;rotatable=0;points=[[0,0.5],[1,0.5]];portConstraint=eastwest;" parent="xSoCJTcvvkp1Ju8zFOZ0-29" vertex="1">
          <mxGeometry y="60" width="280" height="40" as="geometry" />
        </mxCell>
        <mxCell id="xSoCJTcvvkp1Ju8zFOZ0-48" value="+ applyVolunteerUpdate(map): CommonResult" style="text;strokeColor=none;fillColor=none;align=left;verticalAlign=top;spacingLeft=4;spacingRight=4;overflow=hidden;rotatable=0;points=[[0,0.5],[1,0.5]];portConstraint=eastwest;" parent="xSoCJTcvvkp1Ju8zFOZ0-29" vertex="1">
          <mxGeometry y="100" width="280" height="40" as="geometry" />
        </mxCell>
        <mxCell id="xSoCJTcvvkp1Ju8zFOZ0-49" value="+ applyVolunteerDelete(map): CommonResult" style="text;strokeColor=none;fillColor=none;align=left;verticalAlign=top;spacingLeft=4;spacingRight=4;overflow=hidden;rotatable=0;points=[[0,0.5],[1,0.5]];portConstraint=eastwest;" parent="xSoCJTcvvkp1Ju8zFOZ0-29" vertex="1">
          <mxGeometry y="140" width="280" height="40" as="geometry" />
        </mxCell>
        <mxCell id="xSoCJTcvvkp1Ju8zFOZ0-33" value="+ applyVolunteerRetrieve(map): CommonResult" style="text;strokeColor=none;fillColor=none;align=left;verticalAlign=top;spacingLeft=4;spacingRight=4;overflow=hidden;rotatable=0;points=[[0,0.5],[1,0.5]];portConstraint=eastwest;" parent="xSoCJTcvvkp1Ju8zFOZ0-29" vertex="1">
          <mxGeometry y="180" width="280" height="40" as="geometry" />
        </mxCell>
        <mxCell id="xSoCJTcvvkp1Ju8zFOZ0-34" style="edgeStyle=orthogonalEdgeStyle;rounded=0;orthogonalLoop=1;jettySize=auto;html=1;exitX=0.5;exitY=0;exitDx=0;exitDy=0;entryX=0.5;entryY=1;entryDx=0;entryDy=0;dashed=1;endArrow=block;endFill=0;" parent="WIyWlLk6GJQsqaUBKTNV-1" source="xSoCJTcvvkp1Ju8zFOZ0-35" target="xSoCJTcvvkp1Ju8zFOZ0-45" edge="1">
          <mxGeometry relative="1" as="geometry" />
        </mxCell>
        <mxCell id="xSoCJTcvvkp1Ju8zFOZ0-35" value="ApplyVolunteerServiceImpl" style="swimlane;fontStyle=1;align=center;verticalAlign=top;childLayout=stackLayout;horizontal=1;startSize=26;horizontalStack=0;resizeParent=1;resizeParentMax=0;resizeLast=0;collapsible=1;marginBottom=0;" parent="WIyWlLk6GJQsqaUBKTNV-1" vertex="1">
          <mxGeometry x="370" y="870" width="300" height="230" as="geometry">
            <mxRectangle x="325" y="320" width="130" height="26" as="alternateBounds" />
          </mxGeometry>
        </mxCell>
        <mxCell id="xSoCJTcvvkp1Ju8zFOZ0-36" value="+applyVolunteerDao: ApplyVolunteerDao" style="text;strokeColor=none;fillColor=none;align=left;verticalAlign=top;spacingLeft=4;spacingRight=4;overflow=hidden;rotatable=0;points=[[0,0.5],[1,0.5]];portConstraint=eastwest;" parent="xSoCJTcvvkp1Ju8zFOZ0-35" vertex="1">
          <mxGeometry y="26" width="300" height="26" as="geometry" />
        </mxCell>
        <mxCell id="xSoCJTcvvkp1Ju8zFOZ0-37" value="" style="line;strokeWidth=1;fillColor=none;align=left;verticalAlign=middle;spacingTop=-1;spacingLeft=3;spacingRight=3;rotatable=0;labelPosition=right;points=[];portConstraint=eastwest;" parent="xSoCJTcvvkp1Ju8zFOZ0-35" vertex="1">
          <mxGeometry y="52" width="300" height="8" as="geometry" />
        </mxCell>
        <mxCell id="xSoCJTcvvkp1Ju8zFOZ0-38" value="+ stringToDate(String): Date" style="text;strokeColor=none;fillColor=none;align=left;verticalAlign=top;spacingLeft=4;spacingRight=4;overflow=hidden;rotatable=0;points=[[0,0.5],[1,0.5]];portConstraint=eastwest;" parent="xSoCJTcvvkp1Ju8zFOZ0-35" vertex="1">
          <mxGeometry y="60" width="300" height="26" as="geometry" />
        </mxCell>
        <mxCell id="xSoCJTcvvkp1Ju8zFOZ0-58" value="+ create(String,String,String): int" style="text;strokeColor=none;fillColor=none;align=left;verticalAlign=top;spacingLeft=4;spacingRight=4;overflow=hidden;rotatable=0;points=[[0,0.5],[1,0.5]];portConstraint=eastwest;" parent="xSoCJTcvvkp1Ju8zFOZ0-35" vertex="1">
          <mxGeometry y="86" width="300" height="24" as="geometry" />
        </mxCell>
        <mxCell id="xSoCJTcvvkp1Ju8zFOZ0-59" value="+ delete(int): int" style="text;strokeColor=none;fillColor=none;align=left;verticalAlign=top;spacingLeft=4;spacingRight=4;overflow=hidden;rotatable=0;points=[[0,0.5],[1,0.5]];portConstraint=eastwest;" parent="xSoCJTcvvkp1Ju8zFOZ0-35" vertex="1">
          <mxGeometry y="110" width="300" height="24" as="geometry" />
        </mxCell>
        <mxCell id="xSoCJTcvvkp1Ju8zFOZ0-60" value="+ userRetrieve(String): List&lt;UserApplyVolunteer&gt;&#xa;" style="text;strokeColor=none;fillColor=none;align=left;verticalAlign=top;spacingLeft=4;spacingRight=4;overflow=hidden;rotatable=0;points=[[0,0.5],[1,0.5]];portConstraint=eastwest;" parent="xSoCJTcvvkp1Ju8zFOZ0-35" vertex="1">
          <mxGeometry y="134" width="300" height="24" as="geometry" />
        </mxCell>
        <mxCell id="xSoCJTcvvkp1Ju8zFOZ0-61" value="+ userUpdate(int,String,String): int" style="text;strokeColor=none;fillColor=none;align=left;verticalAlign=top;spacingLeft=4;spacingRight=4;overflow=hidden;rotatable=0;points=[[0,0.5],[1,0.5]];portConstraint=eastwest;" parent="xSoCJTcvvkp1Ju8zFOZ0-35" vertex="1">
          <mxGeometry y="158" width="300" height="24" as="geometry" />
        </mxCell>
        <mxCell id="xSoCJTcvvkp1Ju8zFOZ0-62" value="+ approvalRetrieve(String): List&lt;UserAoolyVolunteer&gt;&#xa;" style="text;strokeColor=none;fillColor=none;align=left;verticalAlign=top;spacingLeft=4;spacingRight=4;overflow=hidden;rotatable=0;points=[[0,0.5],[1,0.5]];portConstraint=eastwest;" parent="xSoCJTcvvkp1Ju8zFOZ0-35" vertex="1">
          <mxGeometry y="182" width="300" height="24" as="geometry" />
        </mxCell>
        <mxCell id="xSoCJTcvvkp1Ju8zFOZ0-39" value="+ approvalUpdate(int,String): int" style="text;strokeColor=none;fillColor=none;align=left;verticalAlign=top;spacingLeft=4;spacingRight=4;overflow=hidden;rotatable=0;points=[[0,0.5],[1,0.5]];portConstraint=eastwest;" parent="xSoCJTcvvkp1Ju8zFOZ0-35" vertex="1">
          <mxGeometry y="206" width="300" height="24" as="geometry" />
        </mxCell>
        <mxCell id="xSoCJTcvvkp1Ju8zFOZ0-40" style="edgeStyle=orthogonalEdgeStyle;rounded=0;orthogonalLoop=1;jettySize=auto;html=1;entryX=0;entryY=0.5;entryDx=0;entryDy=0;startArrow=none;startFill=0;endArrow=open;endFill=0;dashed=1;exitX=1;exitY=0.5;exitDx=0;exitDy=0;" parent="WIyWlLk6GJQsqaUBKTNV-1" source="xSoCJTcvvkp1Ju8zFOZ0-41" target="xSoCJTcvvkp1Ju8zFOZ0-43" edge="1">
          <mxGeometry relative="1" as="geometry" />
        </mxCell>
        <mxCell id="xSoCJTcvvkp1Ju8zFOZ0-73" style="edgeStyle=orthogonalEdgeStyle;rounded=0;orthogonalLoop=1;jettySize=auto;html=1;exitX=1;exitY=0.5;exitDx=0;exitDy=0;fontColor=#000000;startArrow=diamond;startFill=1;endArrow=open;endFill=0;dashed=1;" parent="WIyWlLk6GJQsqaUBKTNV-1" source="xSoCJTcvvkp1Ju8zFOZ0-41" target="xSoCJTcvvkp1Ju8zFOZ0-69" edge="1">
          <mxGeometry relative="1" as="geometry" />
        </mxCell>
        <mxCell id="xSoCJTcvvkp1Ju8zFOZ0-41" value="&lt;p style=&quot;margin: 0px ; margin-top: 4px ; text-align: center&quot;&gt;&lt;i&gt;&amp;lt;&amp;lt;Interface&amp;gt;&amp;gt;&lt;/i&gt;&lt;br&gt;&lt;span style=&quot;text-align: left&quot;&gt;&lt;b&gt;ApplyVolunteerDao&lt;/b&gt;&lt;/span&gt;&lt;br&gt;&lt;/p&gt;&lt;p style=&quot;margin: 0px ; margin-top: 4px ; text-align: center&quot;&gt;&lt;b&gt;&lt;br&gt;&lt;/b&gt;&lt;/p&gt;&lt;hr size=&quot;1&quot;&gt;&lt;p style=&quot;margin: 0px 0px 0px 4px&quot;&gt;+&amp;nbsp;create(&lt;span style=&quot;font-family: &amp;#34;jetbrains mono&amp;#34; ; font-size: 9.8pt&quot;&gt;ApplyVolunteer&lt;/span&gt;&lt;span&gt;): int&lt;/span&gt;&lt;/p&gt;&lt;p style=&quot;margin: 0px 0px 0px 4px&quot;&gt;+&amp;nbsp;delete(int):&amp;nbsp;int&lt;br&gt;&lt;/p&gt;&lt;p style=&quot;margin: 0px 0px 0px 4px&quot;&gt;+ userRetrieve(String): List&amp;lt;UserApplyVolunteer&amp;gt;&lt;/p&gt;&lt;p style=&quot;margin: 0px 0px 0px 4px&quot;&gt;+ u&lt;span style=&quot;font-family: &amp;#34;jetbrains mono&amp;#34; ; font-size: 9.8pt&quot;&gt;serUpdate&lt;/span&gt;(int,String,Date):&amp;nbsp;int&lt;/p&gt;&lt;p style=&quot;margin: 0px 0px 0px 4px&quot;&gt;+&amp;nbsp;&lt;span style=&quot;font-family: &amp;#34;jetbrains mono&amp;#34; ; font-size: 9.8pt&quot;&gt;approvalRetrieve&lt;/span&gt;(String): List&amp;lt;UserAoolyVolunteer&amp;gt;&lt;/p&gt;&lt;p style=&quot;margin: 0px 0px 0px 4px&quot;&gt;+&amp;nbsp;&lt;span style=&quot;font-family: &amp;#34;jetbrains mono&amp;#34; ; font-size: 9.8pt&quot;&gt;approvalUpdate&lt;/span&gt;(int,String):&amp;nbsp;int&lt;/p&gt;&lt;p style=&quot;margin: 0px 0px 0px 4px&quot;&gt;+&amp;nbsp;&lt;span style=&quot;font-family: &amp;#34;jetbrains mono&amp;#34; ; font-size: 9.8pt&quot;&gt;electApprovalRegion(String): int&lt;/span&gt;&lt;/p&gt;" style="verticalAlign=top;align=left;overflow=fill;fontSize=12;fontFamily=Helvetica;html=1;" parent="WIyWlLk6GJQsqaUBKTNV-1" vertex="1">
          <mxGeometry x="750" y="715" width="320" height="175" as="geometry" />
        </mxCell>
        <mxCell id="xSoCJTcvvkp1Ju8zFOZ0-42" value="UserApplyVolunteer" style="swimlane;fontStyle=1;childLayout=stackLayout;horizontal=1;startSize=26;fillColor=none;horizontalStack=0;resizeParent=1;resizeParentMax=0;resizeLast=0;collapsible=1;marginBottom=0;" parent="WIyWlLk6GJQsqaUBKTNV-1" vertex="1">
          <mxGeometry x="1140" y="870" width="140" height="156" as="geometry" />
        </mxCell>
        <mxCell id="xSoCJTcvvkp1Ju8zFOZ0-43" value="+ id: int" style="text;strokeColor=none;fillColor=none;align=left;verticalAlign=top;spacingLeft=4;spacingRight=4;overflow=hidden;rotatable=0;points=[[0,0.5],[1,0.5]];portConstraint=eastwest;" parent="xSoCJTcvvkp1Ju8zFOZ0-42" vertex="1">
          <mxGeometry y="26" width="140" height="26" as="geometry" />
        </mxCell>
        <mxCell id="xSoCJTcvvkp1Ju8zFOZ0-44" value="+ name: String" style="text;strokeColor=none;fillColor=none;align=left;verticalAlign=top;spacingLeft=4;spacingRight=4;overflow=hidden;rotatable=0;points=[[0,0.5],[1,0.5]];portConstraint=eastwest;" parent="xSoCJTcvvkp1Ju8zFOZ0-42" vertex="1">
          <mxGeometry y="52" width="140" height="26" as="geometry" />
        </mxCell>
        <mxCell id="xSoCJTcvvkp1Ju8zFOZ0-63" value="+volunteerLocation: String" style="text;strokeColor=none;fillColor=none;align=left;verticalAlign=top;spacingLeft=4;spacingRight=4;overflow=hidden;rotatable=0;points=[[0,0.5],[1,0.5]];portConstraint=eastwest;" parent="xSoCJTcvvkp1Ju8zFOZ0-42" vertex="1">
          <mxGeometry y="78" width="140" height="26" as="geometry" />
        </mxCell>
        <mxCell id="xSoCJTcvvkp1Ju8zFOZ0-64" value="+ volunteerTime: Date" style="text;strokeColor=none;fillColor=none;align=left;verticalAlign=top;spacingLeft=4;spacingRight=4;overflow=hidden;rotatable=0;points=[[0,0.5],[1,0.5]];portConstraint=eastwest;" parent="xSoCJTcvvkp1Ju8zFOZ0-42" vertex="1">
          <mxGeometry y="104" width="140" height="26" as="geometry" />
        </mxCell>
        <mxCell id="xSoCJTcvvkp1Ju8zFOZ0-65" value="+ state: ApplyState" style="text;strokeColor=none;fillColor=none;align=left;verticalAlign=top;spacingLeft=4;spacingRight=4;overflow=hidden;rotatable=0;points=[[0,0.5],[1,0.5]];portConstraint=eastwest;" parent="xSoCJTcvvkp1Ju8zFOZ0-42" vertex="1">
          <mxGeometry y="130" width="140" height="26" as="geometry" />
        </mxCell>
        <mxCell id="xSoCJTcvvkp1Ju8zFOZ0-45" value="&lt;p style=&quot;margin: 0px ; margin-top: 4px ; text-align: center&quot;&gt;&lt;i&gt;&amp;lt;&amp;lt;Interface&amp;gt;&amp;gt;&lt;/i&gt;&lt;br&gt;&lt;b&gt;&lt;span style=&quot;text-align: left&quot;&gt;ApplyVolunteerS&lt;/span&gt;&lt;span style=&quot;text-align: left&quot;&gt;ervice&lt;/span&gt;&lt;/b&gt;&lt;/p&gt;&lt;br&gt;&lt;hr size=&quot;1&quot;&gt;&lt;p style=&quot;margin: 0px ; margin-left: 4px&quot;&gt;+&amp;nbsp;create(String,String,String): int&lt;br&gt;+&amp;nbsp;delete(int):&amp;nbsp;int&lt;br&gt;&lt;/p&gt;&lt;p style=&quot;margin: 0px ; margin-left: 4px&quot;&gt;+ userRetrieve(&lt;span&gt;String): List&amp;lt;UserApplyVolunteer&amp;gt;&lt;/span&gt;&lt;/p&gt;&lt;p style=&quot;margin: 0px ; margin-left: 4px&quot;&gt;+&amp;nbsp;&lt;span style=&quot;font-family: &amp;#34;jetbrains mono&amp;#34; ; font-size: 9.8pt&quot;&gt;userUpdate&lt;/span&gt;&lt;span&gt;(int,String,String):&amp;nbsp;int&lt;/span&gt;&lt;/p&gt;&lt;p style=&quot;margin: 0px ; margin-left: 4px&quot;&gt;+&amp;nbsp;&lt;span style=&quot;font-family: &amp;#34;jetbrains mono&amp;#34; ; font-size: 9.8pt&quot;&gt;approvalRetrieve&lt;/span&gt;&lt;span&gt;(String): List&amp;lt;UserAoolyVolunteer&amp;gt;&lt;/span&gt;&lt;/p&gt;&lt;p style=&quot;margin: 0px ; margin-left: 4px&quot;&gt;+&amp;nbsp;&lt;span style=&quot;font-family: &amp;#34;jetbrains mono&amp;#34; ; font-size: 9.8pt&quot;&gt;approvalUpdate&lt;/span&gt;&lt;span&gt;(int,String):&amp;nbsp;int&lt;/span&gt;&lt;/p&gt;" style="verticalAlign=top;align=left;overflow=fill;fontSize=12;fontFamily=Helvetica;html=1;" parent="WIyWlLk6GJQsqaUBKTNV-1" vertex="1">
          <mxGeometry x="350" y="660" width="340" height="155" as="geometry" />
        </mxCell>
        <mxCell id="xSoCJTcvvkp1Ju8zFOZ0-46" style="edgeStyle=orthogonalEdgeStyle;rounded=0;orthogonalLoop=1;jettySize=auto;html=1;exitX=1;exitY=0.5;exitDx=0;exitDy=0;entryX=0;entryY=0.5;entryDx=0;entryDy=0;endArrow=open;endFill=0;startArrow=diamond;startFill=1;" parent="WIyWlLk6GJQsqaUBKTNV-1" source="xSoCJTcvvkp1Ju8zFOZ0-32" target="xSoCJTcvvkp1Ju8zFOZ0-45" edge="1">
          <mxGeometry relative="1" as="geometry" />
        </mxCell>
        <mxCell id="xSoCJTcvvkp1Ju8zFOZ0-47" style="edgeStyle=orthogonalEdgeStyle;rounded=0;orthogonalLoop=1;jettySize=auto;html=1;exitX=1;exitY=0.5;exitDx=0;exitDy=0;entryX=0.5;entryY=1;entryDx=0;entryDy=0;startArrow=diamond;startFill=1;endArrow=open;endFill=0;" parent="WIyWlLk6GJQsqaUBKTNV-1" source="xSoCJTcvvkp1Ju8zFOZ0-38" target="xSoCJTcvvkp1Ju8zFOZ0-41" edge="1">
          <mxGeometry relative="1" as="geometry" />
        </mxCell>
        <mxCell id="xSoCJTcvvkp1Ju8zFOZ0-50" value="ApprovalVolunteerApplyController" style="swimlane;fontStyle=1;align=center;verticalAlign=top;childLayout=stackLayout;horizontal=1;startSize=26;horizontalStack=0;resizeParent=1;resizeParentMax=0;resizeLast=0;collapsible=1;marginBottom=0;" parent="WIyWlLk6GJQsqaUBKTNV-1" vertex="1">
          <mxGeometry x="-30" y="890" width="280" height="140" as="geometry">
            <mxRectangle x="310" y="120" width="150" height="26" as="alternateBounds" />
          </mxGeometry>
        </mxCell>
        <mxCell id="xSoCJTcvvkp1Ju8zFOZ0-51" value="+ applyVolunteerService: ApplyVolunteerService" style="text;strokeColor=none;fillColor=none;align=left;verticalAlign=top;spacingLeft=4;spacingRight=4;overflow=hidden;rotatable=0;points=[[0,0.5],[1,0.5]];portConstraint=eastwest;" parent="xSoCJTcvvkp1Ju8zFOZ0-50" vertex="1">
          <mxGeometry y="26" width="280" height="26" as="geometry" />
        </mxCell>
        <mxCell id="xSoCJTcvvkp1Ju8zFOZ0-52" value="" style="line;strokeWidth=1;fillColor=none;align=left;verticalAlign=middle;spacingTop=-1;spacingLeft=3;spacingRight=3;rotatable=0;labelPosition=right;points=[];portConstraint=eastwest;" parent="xSoCJTcvvkp1Ju8zFOZ0-50" vertex="1">
          <mxGeometry y="52" width="280" height="8" as="geometry" />
        </mxCell>
        <mxCell id="xSoCJTcvvkp1Ju8zFOZ0-53" value="+ volunteerApplyRetrieve(map): CommonResult" style="text;strokeColor=none;fillColor=none;align=left;verticalAlign=top;spacingLeft=4;spacingRight=4;overflow=hidden;rotatable=0;points=[[0,0.5],[1,0.5]];portConstraint=eastwest;" parent="xSoCJTcvvkp1Ju8zFOZ0-50" vertex="1">
          <mxGeometry y="60" width="280" height="40" as="geometry" />
        </mxCell>
        <mxCell id="xSoCJTcvvkp1Ju8zFOZ0-54" value="+ volunteerApplyHandle(map): CommonResult" style="text;strokeColor=none;fillColor=none;align=left;verticalAlign=top;spacingLeft=4;spacingRight=4;overflow=hidden;rotatable=0;points=[[0,0.5],[1,0.5]];portConstraint=eastwest;" parent="xSoCJTcvvkp1Ju8zFOZ0-50" vertex="1">
          <mxGeometry y="100" width="280" height="40" as="geometry" />
        </mxCell>
        <mxCell id="xSoCJTcvvkp1Ju8zFOZ0-57" style="edgeStyle=orthogonalEdgeStyle;rounded=0;orthogonalLoop=1;jettySize=auto;html=1;exitX=1;exitY=0.5;exitDx=0;exitDy=0;entryX=0;entryY=0.5;entryDx=0;entryDy=0;startArrow=diamond;startFill=1;endArrow=open;endFill=0;" parent="WIyWlLk6GJQsqaUBKTNV-1" source="xSoCJTcvvkp1Ju8zFOZ0-53" target="xSoCJTcvvkp1Ju8zFOZ0-45" edge="1">
          <mxGeometry relative="1" as="geometry" />
        </mxCell>
        <mxCell id="xSoCJTcvvkp1Ju8zFOZ0-66" value="UserInfo" style="swimlane;fontStyle=1;childLayout=stackLayout;horizontal=1;startSize=26;fillColor=none;horizontalStack=0;resizeParent=1;resizeParentMax=0;resizeLast=0;collapsible=1;marginBottom=0;" parent="WIyWlLk6GJQsqaUBKTNV-1" vertex="1">
          <mxGeometry x="1140" y="610" width="140" height="182" as="geometry" />
        </mxCell>
        <mxCell id="xSoCJTcvvkp1Ju8zFOZ0-67" value="+userId: String" style="text;strokeColor=none;fillColor=none;align=left;verticalAlign=top;spacingLeft=4;spacingRight=4;overflow=hidden;rotatable=0;points=[[0,0.5],[1,0.5]];portConstraint=eastwest;" parent="xSoCJTcvvkp1Ju8zFOZ0-66" vertex="1">
          <mxGeometry y="26" width="140" height="26" as="geometry" />
        </mxCell>
        <mxCell id="xSoCJTcvvkp1Ju8zFOZ0-68" value="+ password: String" style="text;strokeColor=none;fillColor=none;align=left;verticalAlign=top;spacingLeft=4;spacingRight=4;overflow=hidden;rotatable=0;points=[[0,0.5],[1,0.5]];portConstraint=eastwest;" parent="xSoCJTcvvkp1Ju8zFOZ0-66" vertex="1">
          <mxGeometry y="52" width="140" height="26" as="geometry" />
        </mxCell>
        <mxCell id="xSoCJTcvvkp1Ju8zFOZ0-69" value="+type: UserType" style="text;strokeColor=none;fillColor=none;align=left;verticalAlign=top;spacingLeft=4;spacingRight=4;overflow=hidden;rotatable=0;points=[[0,0.5],[1,0.5]];portConstraint=eastwest;" parent="xSoCJTcvvkp1Ju8zFOZ0-66" vertex="1">
          <mxGeometry y="78" width="140" height="26" as="geometry" />
        </mxCell>
        <mxCell id="xSoCJTcvvkp1Ju8zFOZ0-70" value="+ name: String" style="text;strokeColor=none;fillColor=none;align=left;verticalAlign=top;spacingLeft=4;spacingRight=4;overflow=hidden;rotatable=0;points=[[0,0.5],[1,0.5]];portConstraint=eastwest;" parent="xSoCJTcvvkp1Ju8zFOZ0-66" vertex="1">
          <mxGeometry y="104" width="140" height="26" as="geometry" />
        </mxCell>
        <mxCell id="xSoCJTcvvkp1Ju8zFOZ0-72" value="+ phoneNumber: ApplyState" style="text;strokeColor=none;fillColor=none;align=left;verticalAlign=top;spacingLeft=4;spacingRight=4;overflow=hidden;rotatable=0;points=[[0,0.5],[1,0.5]];portConstraint=eastwest;" parent="xSoCJTcvvkp1Ju8zFOZ0-66" vertex="1">
          <mxGeometry y="130" width="140" height="26" as="geometry" />
        </mxCell>
        <mxCell id="xSoCJTcvvkp1Ju8zFOZ0-71" value="+ defaultRegion: int" style="text;strokeColor=none;fillColor=none;align=left;verticalAlign=top;spacingLeft=4;spacingRight=4;overflow=hidden;rotatable=0;points=[[0,0.5],[1,0.5]];portConstraint=eastwest;" parent="xSoCJTcvvkp1Ju8zFOZ0-66" vertex="1">
          <mxGeometry y="156" width="140" height="26" as="geometry" />
        </mxCell>
        <mxCell id="xSoCJTcvvkp1Ju8zFOZ0-74" value="CommonUserNoticeController" style="swimlane;fontStyle=1;align=center;verticalAlign=top;childLayout=stackLayout;horizontal=1;startSize=26;horizontalStack=0;resizeParent=1;resizeParentMax=0;resizeLast=0;collapsible=1;marginBottom=0;" parent="WIyWlLk6GJQsqaUBKTNV-1" vertex="1">
          <mxGeometry x="-10" y="1501" width="280" height="140" as="geometry">
            <mxRectangle x="310" y="120" width="150" height="26" as="alternateBounds" />
          </mxGeometry>
        </mxCell>
        <mxCell id="xSoCJTcvvkp1Ju8zFOZ0-75" value="+ userNoticeService: UserNoticeService" style="text;strokeColor=none;fillColor=none;align=left;verticalAlign=top;spacingLeft=4;spacingRight=4;overflow=hidden;rotatable=0;points=[[0,0.5],[1,0.5]];portConstraint=eastwest;" parent="xSoCJTcvvkp1Ju8zFOZ0-74" vertex="1">
          <mxGeometry y="26" width="280" height="26" as="geometry" />
        </mxCell>
        <mxCell id="xSoCJTcvvkp1Ju8zFOZ0-76" value="" style="line;strokeWidth=1;fillColor=none;align=left;verticalAlign=middle;spacingTop=-1;spacingLeft=3;spacingRight=3;rotatable=0;labelPosition=right;points=[];portConstraint=eastwest;" parent="xSoCJTcvvkp1Ju8zFOZ0-74" vertex="1">
          <mxGeometry y="52" width="280" height="8" as="geometry" />
        </mxCell>
        <mxCell id="xSoCJTcvvkp1Ju8zFOZ0-77" value="+ readNoticeFromManager(map): CommonResult" style="text;strokeColor=none;fillColor=none;align=left;verticalAlign=top;spacingLeft=4;spacingRight=4;overflow=hidden;rotatable=0;points=[[0,0.5],[1,0.5]];portConstraint=eastwest;" parent="xSoCJTcvvkp1Ju8zFOZ0-74" vertex="1">
          <mxGeometry y="60" width="280" height="40" as="geometry" />
        </mxCell>
        <mxCell id="xSoCJTcvvkp1Ju8zFOZ0-78" value="+ readNoticeFromApproval(map): CommonResult" style="text;strokeColor=none;fillColor=none;align=left;verticalAlign=top;spacingLeft=4;spacingRight=4;overflow=hidden;rotatable=0;points=[[0,0.5],[1,0.5]];portConstraint=eastwest;" parent="xSoCJTcvvkp1Ju8zFOZ0-74" vertex="1">
          <mxGeometry y="100" width="280" height="40" as="geometry" />
        </mxCell>
        <mxCell id="xSoCJTcvvkp1Ju8zFOZ0-79" style="edgeStyle=orthogonalEdgeStyle;rounded=0;orthogonalLoop=1;jettySize=auto;html=1;exitX=0.5;exitY=0;exitDx=0;exitDy=0;entryX=0.5;entryY=1;entryDx=0;entryDy=0;dashed=1;endArrow=block;endFill=0;" parent="WIyWlLk6GJQsqaUBKTNV-1" source="xSoCJTcvvkp1Ju8zFOZ0-80" target="xSoCJTcvvkp1Ju8zFOZ0-90" edge="1">
          <mxGeometry relative="1" as="geometry" />
        </mxCell>
        <mxCell id="xSoCJTcvvkp1Ju8zFOZ0-80" value="UserNoticeServiceImpl" style="swimlane;fontStyle=1;align=center;verticalAlign=top;childLayout=stackLayout;horizontal=1;startSize=26;horizontalStack=0;resizeParent=1;resizeParentMax=0;resizeLast=0;collapsible=1;marginBottom=0;" parent="WIyWlLk6GJQsqaUBKTNV-1" vertex="1">
          <mxGeometry x="352.5" y="1701" width="255" height="110" as="geometry">
            <mxRectangle x="325" y="320" width="130" height="26" as="alternateBounds" />
          </mxGeometry>
        </mxCell>
        <mxCell id="xSoCJTcvvkp1Ju8zFOZ0-81" value="+ userNoticeDao: UserNoticeDao" style="text;strokeColor=none;fillColor=none;align=left;verticalAlign=top;spacingLeft=4;spacingRight=4;overflow=hidden;rotatable=0;points=[[0,0.5],[1,0.5]];portConstraint=eastwest;" parent="xSoCJTcvvkp1Ju8zFOZ0-80" vertex="1">
          <mxGeometry y="26" width="255" height="26" as="geometry" />
        </mxCell>
        <mxCell id="xSoCJTcvvkp1Ju8zFOZ0-82" value="" style="line;strokeWidth=1;fillColor=none;align=left;verticalAlign=middle;spacingTop=-1;spacingLeft=3;spacingRight=3;rotatable=0;labelPosition=right;points=[];portConstraint=eastwest;" parent="xSoCJTcvvkp1Ju8zFOZ0-80" vertex="1">
          <mxGeometry y="52" width="255" height="8" as="geometry" />
        </mxCell>
        <mxCell id="xSoCJTcvvkp1Ju8zFOZ0-83" value="+ fromManager( ): List&lt;string&gt;" style="text;strokeColor=none;fillColor=none;align=left;verticalAlign=top;spacingLeft=4;spacingRight=4;overflow=hidden;rotatable=0;points=[[0,0.5],[1,0.5]];portConstraint=eastwest;" parent="xSoCJTcvvkp1Ju8zFOZ0-80" vertex="1">
          <mxGeometry y="60" width="255" height="26" as="geometry" />
        </mxCell>
        <mxCell id="xSoCJTcvvkp1Ju8zFOZ0-84" value="+ fromApproval(String,String): List&lt;String&gt;" style="text;strokeColor=none;fillColor=none;align=left;verticalAlign=top;spacingLeft=4;spacingRight=4;overflow=hidden;rotatable=0;points=[[0,0.5],[1,0.5]];portConstraint=eastwest;" parent="xSoCJTcvvkp1Ju8zFOZ0-80" vertex="1">
          <mxGeometry y="86" width="255" height="24" as="geometry" />
        </mxCell>
        <mxCell id="xSoCJTcvvkp1Ju8zFOZ0-85" style="edgeStyle=orthogonalEdgeStyle;rounded=0;orthogonalLoop=1;jettySize=auto;html=1;entryX=0;entryY=0.5;entryDx=0;entryDy=0;startArrow=none;startFill=0;endArrow=open;endFill=0;dashed=1;exitX=1;exitY=0.5;exitDx=0;exitDy=0;" parent="WIyWlLk6GJQsqaUBKTNV-1" source="xSoCJTcvvkp1Ju8zFOZ0-86" target="xSoCJTcvvkp1Ju8zFOZ0-96" edge="1">
          <mxGeometry relative="1" as="geometry">
            <mxPoint x="939.9999999999995" y="1581" as="targetPoint" />
          </mxGeometry>
        </mxCell>
        <mxCell id="xSoCJTcvvkp1Ju8zFOZ0-115" style="edgeStyle=orthogonalEdgeStyle;rounded=0;orthogonalLoop=1;jettySize=auto;html=1;exitX=1;exitY=0.5;exitDx=0;exitDy=0;entryX=0;entryY=0.5;entryDx=0;entryDy=0;dashed=1;fontColor=#000000;startArrow=diamond;startFill=1;endArrow=open;endFill=0;" parent="WIyWlLk6GJQsqaUBKTNV-1" source="xSoCJTcvvkp1Ju8zFOZ0-86" target="xSoCJTcvvkp1Ju8zFOZ0-104" edge="1">
          <mxGeometry relative="1" as="geometry" />
        </mxCell>
        <mxCell id="xSoCJTcvvkp1Ju8zFOZ0-116" style="edgeStyle=orthogonalEdgeStyle;rounded=0;orthogonalLoop=1;jettySize=auto;html=1;exitX=1;exitY=0.5;exitDx=0;exitDy=0;entryX=0;entryY=0.5;entryDx=0;entryDy=0;dashed=1;fontColor=#000000;startArrow=diamond;startFill=1;endArrow=open;endFill=0;" parent="WIyWlLk6GJQsqaUBKTNV-1" source="xSoCJTcvvkp1Ju8zFOZ0-86" target="xSoCJTcvvkp1Ju8zFOZ0-113" edge="1">
          <mxGeometry relative="1" as="geometry" />
        </mxCell>
        <mxCell id="xSoCJTcvvkp1Ju8zFOZ0-86" value="&lt;p style=&quot;margin: 0px ; margin-top: 4px ; text-align: center&quot;&gt;&lt;i&gt;&amp;lt;&amp;lt;Interface&amp;gt;&amp;gt;&lt;/i&gt;&lt;br&gt;&lt;/p&gt;&lt;pre style=&quot;text-align: center ; font-family: &amp;#34;jetbrains mono&amp;#34; ; font-size: 9.8pt&quot;&gt;&lt;b&gt;UserNoticeDao&lt;/b&gt;&lt;/pre&gt;&lt;hr size=&quot;1&quot;&gt;&lt;div&gt;+&amp;nbsp;&lt;span style=&quot;font-family: &amp;#34;jetbrains mono&amp;#34; ; font-size: 9.8pt&quot;&gt;fromManager&lt;/span&gt;( ): List&amp;lt;string&amp;gt;&lt;br&gt;&lt;/div&gt;&lt;div&gt;+&amp;nbsp;&lt;span style=&quot;font-family: &amp;#34;jetbrains mono&amp;#34; ; font-size: 9.8pt&quot;&gt;fromApproval&lt;/span&gt;(String,String):&amp;nbsp;List&amp;lt;String&amp;gt;&lt;/div&gt;&lt;div&gt;+&amp;nbsp;&lt;span style=&quot;font-family: &amp;#34;jetbrains mono&amp;#34; ; font-size: 9.8pt&quot;&gt;selectUserRegion(String): int&lt;/span&gt;&lt;/div&gt;" style="verticalAlign=top;align=left;overflow=fill;fontSize=12;fontFamily=Helvetica;html=1;" parent="WIyWlLk6GJQsqaUBKTNV-1" vertex="1">
          <mxGeometry x="670" y="1521" width="250" height="120" as="geometry" />
        </mxCell>
        <mxCell id="xSoCJTcvvkp1Ju8zFOZ0-90" value="&lt;p style=&quot;margin: 4px 0px 0px&quot;&gt;&lt;i&gt;&amp;lt;&amp;lt;Interface&amp;gt;&amp;gt;&lt;/i&gt;&lt;br&gt;&lt;/p&gt;&lt;pre style=&quot;font-family: &amp;#34;jetbrains mono&amp;#34; ; font-size: 9.8pt&quot;&gt;&lt;b&gt;UserNoticeService&lt;/b&gt;&lt;/pre&gt;&lt;hr size=&quot;1&quot;&gt;&lt;p style=&quot;margin: 0px ; margin-left: 4px&quot;&gt;&lt;/p&gt;&lt;div style=&quot;text-align: left&quot;&gt;+&amp;nbsp;&lt;span style=&quot;font-family: &amp;#34;jetbrains mono&amp;#34; ; font-size: 9.8pt&quot;&gt;fromManager&lt;/span&gt;&lt;span&gt;( ): List&amp;lt;string&amp;gt;&lt;/span&gt;&lt;br&gt;&lt;/div&gt;&lt;div style=&quot;text-align: left&quot;&gt;+&amp;nbsp;&lt;span style=&quot;font-family: &amp;#34;jetbrains mono&amp;#34; ; font-size: 9.8pt&quot;&gt;fromApproval&lt;/span&gt;&lt;span&gt;(String,String):&amp;nbsp;List&amp;lt;String&amp;gt;&lt;/span&gt;&lt;br&gt;&lt;/div&gt;&lt;p&gt;&lt;/p&gt;" style="verticalAlign=top;align=center;overflow=fill;fontSize=12;fontFamily=Helvetica;html=1;" parent="WIyWlLk6GJQsqaUBKTNV-1" vertex="1">
          <mxGeometry x="350" y="1528.5" width="260" height="105" as="geometry" />
        </mxCell>
        <mxCell id="xSoCJTcvvkp1Ju8zFOZ0-91" style="edgeStyle=orthogonalEdgeStyle;rounded=0;orthogonalLoop=1;jettySize=auto;html=1;exitX=1;exitY=0.5;exitDx=0;exitDy=0;entryX=0;entryY=0.5;entryDx=0;entryDy=0;endArrow=open;endFill=0;startArrow=diamond;startFill=1;" parent="WIyWlLk6GJQsqaUBKTNV-1" source="xSoCJTcvvkp1Ju8zFOZ0-77" target="xSoCJTcvvkp1Ju8zFOZ0-90" edge="1">
          <mxGeometry relative="1" as="geometry" />
        </mxCell>
        <mxCell id="xSoCJTcvvkp1Ju8zFOZ0-92" style="edgeStyle=orthogonalEdgeStyle;rounded=0;orthogonalLoop=1;jettySize=auto;html=1;exitX=1;exitY=0.5;exitDx=0;exitDy=0;entryX=0.5;entryY=1;entryDx=0;entryDy=0;startArrow=diamond;startFill=1;endArrow=open;endFill=0;" parent="WIyWlLk6GJQsqaUBKTNV-1" source="xSoCJTcvvkp1Ju8zFOZ0-83" target="xSoCJTcvvkp1Ju8zFOZ0-86" edge="1">
          <mxGeometry relative="1" as="geometry" />
        </mxCell>
        <mxCell id="xSoCJTcvvkp1Ju8zFOZ0-93" value="UserInfo" style="swimlane;fontStyle=1;childLayout=stackLayout;horizontal=1;startSize=26;fillColor=none;horizontalStack=0;resizeParent=1;resizeParentMax=0;resizeLast=0;collapsible=1;marginBottom=0;" parent="WIyWlLk6GJQsqaUBKTNV-1" vertex="1">
          <mxGeometry x="1050" y="1330" width="140" height="182" as="geometry" />
        </mxCell>
        <mxCell id="xSoCJTcvvkp1Ju8zFOZ0-94" value="+userId: String" style="text;strokeColor=none;fillColor=none;align=left;verticalAlign=top;spacingLeft=4;spacingRight=4;overflow=hidden;rotatable=0;points=[[0,0.5],[1,0.5]];portConstraint=eastwest;" parent="xSoCJTcvvkp1Ju8zFOZ0-93" vertex="1">
          <mxGeometry y="26" width="140" height="26" as="geometry" />
        </mxCell>
        <mxCell id="xSoCJTcvvkp1Ju8zFOZ0-95" value="+ password: String" style="text;strokeColor=none;fillColor=none;align=left;verticalAlign=top;spacingLeft=4;spacingRight=4;overflow=hidden;rotatable=0;points=[[0,0.5],[1,0.5]];portConstraint=eastwest;" parent="xSoCJTcvvkp1Ju8zFOZ0-93" vertex="1">
          <mxGeometry y="52" width="140" height="26" as="geometry" />
        </mxCell>
        <mxCell id="xSoCJTcvvkp1Ju8zFOZ0-96" value="+type: UserType" style="text;strokeColor=none;fillColor=none;align=left;verticalAlign=top;spacingLeft=4;spacingRight=4;overflow=hidden;rotatable=0;points=[[0,0.5],[1,0.5]];portConstraint=eastwest;" parent="xSoCJTcvvkp1Ju8zFOZ0-93" vertex="1">
          <mxGeometry y="78" width="140" height="26" as="geometry" />
        </mxCell>
        <mxCell id="xSoCJTcvvkp1Ju8zFOZ0-97" value="+ name: String" style="text;strokeColor=none;fillColor=none;align=left;verticalAlign=top;spacingLeft=4;spacingRight=4;overflow=hidden;rotatable=0;points=[[0,0.5],[1,0.5]];portConstraint=eastwest;" parent="xSoCJTcvvkp1Ju8zFOZ0-93" vertex="1">
          <mxGeometry y="104" width="140" height="26" as="geometry" />
        </mxCell>
        <mxCell id="xSoCJTcvvkp1Ju8zFOZ0-98" value="+ phoneNumber: ApplyState" style="text;strokeColor=none;fillColor=none;align=left;verticalAlign=top;spacingLeft=4;spacingRight=4;overflow=hidden;rotatable=0;points=[[0,0.5],[1,0.5]];portConstraint=eastwest;" parent="xSoCJTcvvkp1Ju8zFOZ0-93" vertex="1">
          <mxGeometry y="130" width="140" height="26" as="geometry" />
        </mxCell>
        <mxCell id="xSoCJTcvvkp1Ju8zFOZ0-99" value="+ defaultRegion: int" style="text;strokeColor=none;fillColor=none;align=left;verticalAlign=top;spacingLeft=4;spacingRight=4;overflow=hidden;rotatable=0;points=[[0,0.5],[1,0.5]];portConstraint=eastwest;" parent="xSoCJTcvvkp1Ju8zFOZ0-93" vertex="1">
          <mxGeometry y="156" width="140" height="26" as="geometry" />
        </mxCell>
        <mxCell id="xSoCJTcvvkp1Ju8zFOZ0-102" value="ManagerNotice" style="swimlane;fontStyle=1;childLayout=stackLayout;horizontal=1;startSize=26;fillColor=none;horizontalStack=0;resizeParent=1;resizeParentMax=0;resizeLast=0;collapsible=1;marginBottom=0;" parent="WIyWlLk6GJQsqaUBKTNV-1" vertex="1">
          <mxGeometry x="1050" y="1551" width="140" height="104" as="geometry" />
        </mxCell>
        <mxCell id="xSoCJTcvvkp1Ju8zFOZ0-103" value="+ id: int" style="text;strokeColor=none;fillColor=none;align=left;verticalAlign=top;spacingLeft=4;spacingRight=4;overflow=hidden;rotatable=0;points=[[0,0.5],[1,0.5]];portConstraint=eastwest;" parent="xSoCJTcvvkp1Ju8zFOZ0-102" vertex="1">
          <mxGeometry y="26" width="140" height="26" as="geometry" />
        </mxCell>
        <mxCell id="xSoCJTcvvkp1Ju8zFOZ0-104" value="+ managerId: String" style="text;strokeColor=none;fillColor=none;align=left;verticalAlign=top;spacingLeft=4;spacingRight=4;overflow=hidden;rotatable=0;points=[[0,0.5],[1,0.5]];portConstraint=eastwest;" parent="xSoCJTcvvkp1Ju8zFOZ0-102" vertex="1">
          <mxGeometry y="52" width="140" height="26" as="geometry" />
        </mxCell>
        <mxCell id="xSoCJTcvvkp1Ju8zFOZ0-106" value="+ notice: String" style="text;strokeColor=none;fillColor=none;align=left;verticalAlign=top;spacingLeft=4;spacingRight=4;overflow=hidden;rotatable=0;points=[[0,0.5],[1,0.5]];portConstraint=eastwest;" parent="xSoCJTcvvkp1Ju8zFOZ0-102" vertex="1">
          <mxGeometry y="78" width="140" height="26" as="geometry" />
        </mxCell>
        <mxCell id="xSoCJTcvvkp1Ju8zFOZ0-109" value="ApprovalNotice" style="swimlane;fontStyle=1;childLayout=stackLayout;horizontal=1;startSize=26;fillColor=none;horizontalStack=0;resizeParent=1;resizeParentMax=0;resizeLast=0;collapsible=1;marginBottom=0;" parent="WIyWlLk6GJQsqaUBKTNV-1" vertex="1">
          <mxGeometry x="1050" y="1721" width="160" height="156" as="geometry" />
        </mxCell>
        <mxCell id="xSoCJTcvvkp1Ju8zFOZ0-110" value="+ id: int" style="text;strokeColor=none;fillColor=none;align=left;verticalAlign=top;spacingLeft=4;spacingRight=4;overflow=hidden;rotatable=0;points=[[0,0.5],[1,0.5]];portConstraint=eastwest;" parent="xSoCJTcvvkp1Ju8zFOZ0-109" vertex="1">
          <mxGeometry y="26" width="160" height="26" as="geometry" />
        </mxCell>
        <mxCell id="xSoCJTcvvkp1Ju8zFOZ0-111" value="+ approvalId: String" style="text;strokeColor=none;fillColor=none;align=left;verticalAlign=top;spacingLeft=4;spacingRight=4;overflow=hidden;rotatable=0;points=[[0,0.5],[1,0.5]];portConstraint=eastwest;" parent="xSoCJTcvvkp1Ju8zFOZ0-109" vertex="1">
          <mxGeometry y="52" width="160" height="26" as="geometry" />
        </mxCell>
        <mxCell id="xSoCJTcvvkp1Ju8zFOZ0-113" value="+ notice: String" style="text;strokeColor=none;fillColor=none;align=left;verticalAlign=top;spacingLeft=4;spacingRight=4;overflow=hidden;rotatable=0;points=[[0,0.5],[1,0.5]];portConstraint=eastwest;" parent="xSoCJTcvvkp1Ju8zFOZ0-109" vertex="1">
          <mxGeometry y="78" width="160" height="26" as="geometry" />
        </mxCell>
        <mxCell id="xSoCJTcvvkp1Ju8zFOZ0-114" value="+ defaultRegion: int" style="text;strokeColor=none;fillColor=none;align=left;verticalAlign=top;spacingLeft=4;spacingRight=4;overflow=hidden;rotatable=0;points=[[0,0.5],[1,0.5]];portConstraint=eastwest;" parent="xSoCJTcvvkp1Ju8zFOZ0-109" vertex="1">
          <mxGeometry y="104" width="160" height="26" as="geometry" />
        </mxCell>
        <mxCell id="xSoCJTcvvkp1Ju8zFOZ0-112" value="+ onlyForVolunteer: String" style="text;strokeColor=none;fillColor=none;align=left;verticalAlign=top;spacingLeft=4;spacingRight=4;overflow=hidden;rotatable=0;points=[[0,0.5],[1,0.5]];portConstraint=eastwest;" parent="xSoCJTcvvkp1Ju8zFOZ0-109" vertex="1">
          <mxGeometry y="130" width="160" height="26" as="geometry" />
        </mxCell>
        <mxCell id="xSoCJTcvvkp1Ju8zFOZ0-152" value="VolunteerNoticeController" style="swimlane;fontStyle=1;align=center;verticalAlign=top;childLayout=stackLayout;horizontal=1;startSize=26;horizontalStack=0;resizeParent=1;resizeParentMax=0;resizeLast=0;collapsible=1;marginBottom=0;" parent="WIyWlLk6GJQsqaUBKTNV-1" vertex="1">
          <mxGeometry x="-10" y="1706" width="280" height="100" as="geometry">
            <mxRectangle x="310" y="120" width="150" height="26" as="alternateBounds" />
          </mxGeometry>
        </mxCell>
        <mxCell id="xSoCJTcvvkp1Ju8zFOZ0-153" value="+ userNoticeService: UserNoticeService" style="text;strokeColor=none;fillColor=none;align=left;verticalAlign=top;spacingLeft=4;spacingRight=4;overflow=hidden;rotatable=0;points=[[0,0.5],[1,0.5]];portConstraint=eastwest;" parent="xSoCJTcvvkp1Ju8zFOZ0-152" vertex="1">
          <mxGeometry y="26" width="280" height="26" as="geometry" />
        </mxCell>
        <mxCell id="xSoCJTcvvkp1Ju8zFOZ0-154" value="" style="line;strokeWidth=1;fillColor=none;align=left;verticalAlign=middle;spacingTop=-1;spacingLeft=3;spacingRight=3;rotatable=0;labelPosition=right;points=[];portConstraint=eastwest;" parent="xSoCJTcvvkp1Ju8zFOZ0-152" vertex="1">
          <mxGeometry y="52" width="280" height="8" as="geometry" />
        </mxCell>
        <mxCell id="xSoCJTcvvkp1Ju8zFOZ0-155" value="+ readNoticeFromApproval(map): CommonResult" style="text;strokeColor=none;fillColor=none;align=left;verticalAlign=top;spacingLeft=4;spacingRight=4;overflow=hidden;rotatable=0;points=[[0,0.5],[1,0.5]];portConstraint=eastwest;" parent="xSoCJTcvvkp1Ju8zFOZ0-152" vertex="1">
          <mxGeometry y="60" width="280" height="40" as="geometry" />
        </mxCell>
        <mxCell id="xSoCJTcvvkp1Ju8zFOZ0-156" style="edgeStyle=orthogonalEdgeStyle;rounded=0;orthogonalLoop=1;jettySize=auto;html=1;exitX=1;exitY=0.5;exitDx=0;exitDy=0;entryX=0;entryY=0.5;entryDx=0;entryDy=0;fontColor=#000000;startArrow=diamond;startFill=1;endArrow=open;endFill=0;" parent="WIyWlLk6GJQsqaUBKTNV-1" source="xSoCJTcvvkp1Ju8zFOZ0-153" target="xSoCJTcvvkp1Ju8zFOZ0-90" edge="1">
          <mxGeometry relative="1" as="geometry" />
        </mxCell>
        <mxCell id="xSoCJTcvvkp1Ju8zFOZ0-157" value="ApprovalNoticeController" style="swimlane;fontStyle=1;align=center;verticalAlign=top;childLayout=stackLayout;horizontal=1;startSize=26;horizontalStack=0;resizeParent=1;resizeParentMax=0;resizeLast=0;collapsible=1;marginBottom=0;" parent="WIyWlLk6GJQsqaUBKTNV-1" vertex="1">
          <mxGeometry x="-30" y="2071" width="280" height="220" as="geometry">
            <mxRectangle x="310" y="120" width="150" height="26" as="alternateBounds" />
          </mxGeometry>
        </mxCell>
        <mxCell id="xSoCJTcvvkp1Ju8zFOZ0-158" value="+ approvalNoticeService: ApprovalNoticeService" style="text;strokeColor=none;fillColor=none;align=left;verticalAlign=top;spacingLeft=4;spacingRight=4;overflow=hidden;rotatable=0;points=[[0,0.5],[1,0.5]];portConstraint=eastwest;" parent="xSoCJTcvvkp1Ju8zFOZ0-157" vertex="1">
          <mxGeometry y="26" width="280" height="26" as="geometry" />
        </mxCell>
        <mxCell id="xSoCJTcvvkp1Ju8zFOZ0-159" value="" style="line;strokeWidth=1;fillColor=none;align=left;verticalAlign=middle;spacingTop=-1;spacingLeft=3;spacingRight=3;rotatable=0;labelPosition=right;points=[];portConstraint=eastwest;" parent="xSoCJTcvvkp1Ju8zFOZ0-157" vertex="1">
          <mxGeometry y="52" width="280" height="8" as="geometry" />
        </mxCell>
        <mxCell id="xSoCJTcvvkp1Ju8zFOZ0-160" value="+create(map): CommonResult" style="text;strokeColor=none;fillColor=none;align=left;verticalAlign=top;spacingLeft=4;spacingRight=4;overflow=hidden;rotatable=0;points=[[0,0.5],[1,0.5]];portConstraint=eastwest;" parent="xSoCJTcvvkp1Ju8zFOZ0-157" vertex="1">
          <mxGeometry y="60" width="280" height="40" as="geometry" />
        </mxCell>
        <mxCell id="xSoCJTcvvkp1Ju8zFOZ0-197" value="+ update(map): CommonResult" style="text;strokeColor=none;fillColor=none;align=left;verticalAlign=top;spacingLeft=4;spacingRight=4;overflow=hidden;rotatable=0;points=[[0,0.5],[1,0.5]];portConstraint=eastwest;" parent="xSoCJTcvvkp1Ju8zFOZ0-157" vertex="1">
          <mxGeometry y="100" width="280" height="40" as="geometry" />
        </mxCell>
        <mxCell id="xSoCJTcvvkp1Ju8zFOZ0-198" value="+ delete(map): CommonResult" style="text;strokeColor=none;fillColor=none;align=left;verticalAlign=top;spacingLeft=4;spacingRight=4;overflow=hidden;rotatable=0;points=[[0,0.5],[1,0.5]];portConstraint=eastwest;" parent="xSoCJTcvvkp1Ju8zFOZ0-157" vertex="1">
          <mxGeometry y="140" width="280" height="40" as="geometry" />
        </mxCell>
        <mxCell id="xSoCJTcvvkp1Ju8zFOZ0-161" value="+ retrieve(map): CommonResult" style="text;strokeColor=none;fillColor=none;align=left;verticalAlign=top;spacingLeft=4;spacingRight=4;overflow=hidden;rotatable=0;points=[[0,0.5],[1,0.5]];portConstraint=eastwest;" parent="xSoCJTcvvkp1Ju8zFOZ0-157" vertex="1">
          <mxGeometry y="180" width="280" height="40" as="geometry" />
        </mxCell>
        <mxCell id="xSoCJTcvvkp1Ju8zFOZ0-162" style="edgeStyle=orthogonalEdgeStyle;rounded=0;orthogonalLoop=1;jettySize=auto;html=1;exitX=0.5;exitY=0;exitDx=0;exitDy=0;entryX=0.5;entryY=1;entryDx=0;entryDy=0;dashed=1;endArrow=block;endFill=0;" parent="WIyWlLk6GJQsqaUBKTNV-1" source="xSoCJTcvvkp1Ju8zFOZ0-163" target="xSoCJTcvvkp1Ju8zFOZ0-172" edge="1">
          <mxGeometry relative="1" as="geometry" />
        </mxCell>
        <mxCell id="xSoCJTcvvkp1Ju8zFOZ0-163" value="ApprovalNoticeServiceImpl" style="swimlane;fontStyle=1;align=center;verticalAlign=top;childLayout=stackLayout;horizontal=1;startSize=26;horizontalStack=0;resizeParent=1;resizeParentMax=0;resizeLast=0;collapsible=1;marginBottom=0;" parent="WIyWlLk6GJQsqaUBKTNV-1" vertex="1">
          <mxGeometry x="332.5" y="2291" width="297.5" height="158" as="geometry">
            <mxRectangle x="325" y="320" width="130" height="26" as="alternateBounds" />
          </mxGeometry>
        </mxCell>
        <mxCell id="xSoCJTcvvkp1Ju8zFOZ0-164" value="+ approvalNoticeDao: ApprovalNoticeDao" style="text;strokeColor=none;fillColor=none;align=left;verticalAlign=top;spacingLeft=4;spacingRight=4;overflow=hidden;rotatable=0;points=[[0,0.5],[1,0.5]];portConstraint=eastwest;" parent="xSoCJTcvvkp1Ju8zFOZ0-163" vertex="1">
          <mxGeometry y="26" width="297.5" height="26" as="geometry" />
        </mxCell>
        <mxCell id="xSoCJTcvvkp1Ju8zFOZ0-165" value="" style="line;strokeWidth=1;fillColor=none;align=left;verticalAlign=middle;spacingTop=-1;spacingLeft=3;spacingRight=3;rotatable=0;labelPosition=right;points=[];portConstraint=eastwest;" parent="xSoCJTcvvkp1Ju8zFOZ0-163" vertex="1">
          <mxGeometry y="52" width="297.5" height="8" as="geometry" />
        </mxCell>
        <mxCell id="xSoCJTcvvkp1Ju8zFOZ0-166" value="+ create(String,String,String): int&#xa;&#xa;" style="text;strokeColor=none;fillColor=none;align=left;verticalAlign=top;spacingLeft=4;spacingRight=4;overflow=hidden;rotatable=0;points=[[0,0.5],[1,0.5]];portConstraint=eastwest;" parent="xSoCJTcvvkp1Ju8zFOZ0-163" vertex="1">
          <mxGeometry y="60" width="297.5" height="26" as="geometry" />
        </mxCell>
        <mxCell id="xSoCJTcvvkp1Ju8zFOZ0-199" value="+ update(int,String,String): int&#xa;&#xa;" style="text;strokeColor=none;fillColor=none;align=left;verticalAlign=top;spacingLeft=4;spacingRight=4;overflow=hidden;rotatable=0;points=[[0,0.5],[1,0.5]];portConstraint=eastwest;" parent="xSoCJTcvvkp1Ju8zFOZ0-163" vertex="1">
          <mxGeometry y="86" width="297.5" height="24" as="geometry" />
        </mxCell>
        <mxCell id="xSoCJTcvvkp1Ju8zFOZ0-200" value="+ delete(int): int" style="text;strokeColor=none;fillColor=none;align=left;verticalAlign=top;spacingLeft=4;spacingRight=4;overflow=hidden;rotatable=0;points=[[0,0.5],[1,0.5]];portConstraint=eastwest;" parent="xSoCJTcvvkp1Ju8zFOZ0-163" vertex="1">
          <mxGeometry y="110" width="297.5" height="24" as="geometry" />
        </mxCell>
        <mxCell id="xSoCJTcvvkp1Ju8zFOZ0-167" value="+ retrieve(String): List&lt;ApprovalNoticeForApproval&gt;" style="text;strokeColor=none;fillColor=none;align=left;verticalAlign=top;spacingLeft=4;spacingRight=4;overflow=hidden;rotatable=0;points=[[0,0.5],[1,0.5]];portConstraint=eastwest;" parent="xSoCJTcvvkp1Ju8zFOZ0-163" vertex="1">
          <mxGeometry y="134" width="297.5" height="24" as="geometry" />
        </mxCell>
        <mxCell id="xSoCJTcvvkp1Ju8zFOZ0-168" style="edgeStyle=orthogonalEdgeStyle;rounded=0;orthogonalLoop=1;jettySize=auto;html=1;entryX=0;entryY=0.5;entryDx=0;entryDy=0;startArrow=none;startFill=0;endArrow=open;endFill=0;dashed=1;exitX=1;exitY=0.5;exitDx=0;exitDy=0;" parent="WIyWlLk6GJQsqaUBKTNV-1" source="xSoCJTcvvkp1Ju8zFOZ0-171" target="xSoCJTcvvkp1Ju8zFOZ0-178" edge="1">
          <mxGeometry relative="1" as="geometry">
            <mxPoint x="919.9999999999995" y="2171" as="targetPoint" />
          </mxGeometry>
        </mxCell>
        <mxCell id="xSoCJTcvvkp1Ju8zFOZ0-170" style="edgeStyle=orthogonalEdgeStyle;rounded=0;orthogonalLoop=1;jettySize=auto;html=1;exitX=1;exitY=0.5;exitDx=0;exitDy=0;entryX=0;entryY=0.5;entryDx=0;entryDy=0;dashed=1;fontColor=#000000;startArrow=diamond;startFill=1;endArrow=open;endFill=0;" parent="WIyWlLk6GJQsqaUBKTNV-1" source="xSoCJTcvvkp1Ju8zFOZ0-171" target="xSoCJTcvvkp1Ju8zFOZ0-189" edge="1">
          <mxGeometry relative="1" as="geometry" />
        </mxCell>
        <mxCell id="xSoCJTcvvkp1Ju8zFOZ0-171" value="&lt;p style=&quot;margin: 0px ; margin-top: 4px ; text-align: center&quot;&gt;&lt;i&gt;&amp;lt;&amp;lt;Interface&amp;gt;&amp;gt;&lt;/i&gt;&lt;br&gt;&lt;/p&gt;&lt;pre style=&quot;text-align: center ; font-family: &amp;#34;jetbrains mono&amp;#34; ; font-size: 9.8pt&quot;&gt;&lt;pre style=&quot;font-family: &amp;#34;jetbrains mono&amp;#34; ; font-size: 9.8pt&quot;&gt;&lt;b&gt;ApprovalNoticeDao&lt;/b&gt;&lt;/pre&gt;&lt;/pre&gt;&lt;hr size=&quot;1&quot;&gt;&lt;div&gt;&lt;div&gt;+&amp;nbsp;&lt;span style=&quot;font-family: &amp;#34;jetbrains mono&amp;#34; ; font-size: 9.8pt&quot;&gt;create&lt;/span&gt;(String,String,String): int&lt;br&gt;&lt;/div&gt;&lt;div&gt;+&amp;nbsp;&lt;span style=&quot;font-family: &amp;#34;jetbrains mono&amp;#34; ; font-size: 9.8pt&quot;&gt;update&lt;/span&gt;(int,String,String): int&lt;br&gt;&lt;/div&gt;&lt;div&gt;+&amp;nbsp;&lt;span style=&quot;font-family: &amp;#34;jetbrains mono&amp;#34; ; font-size: 9.8pt&quot;&gt;delete&lt;/span&gt;(int): int&lt;br&gt;&lt;/div&gt;&lt;div&gt;+&amp;nbsp;&lt;font face=&quot;jetbrains mono&quot;&gt;&lt;span style=&quot;font-size: 13.0667px&quot;&gt;retrieve&lt;/span&gt;&lt;/font&gt;(String): List&amp;lt;ApprovalNoticeForApproval&amp;gt;&lt;/div&gt;&lt;/div&gt;" style="verticalAlign=top;align=left;overflow=fill;fontSize=12;fontFamily=Helvetica;html=1;" parent="WIyWlLk6GJQsqaUBKTNV-1" vertex="1">
          <mxGeometry x="650" y="2111" width="290" height="139" as="geometry" />
        </mxCell>
        <mxCell id="xSoCJTcvvkp1Ju8zFOZ0-172" value="&lt;p style=&quot;margin: 4px 0px 0px&quot;&gt;&lt;i&gt;&amp;lt;&amp;lt;Interface&amp;gt;&amp;gt;&lt;/i&gt;&lt;br&gt;&lt;/p&gt;&lt;pre style=&quot;font-family: &amp;#34;jetbrains mono&amp;#34; ; font-size: 9.8pt&quot;&gt;&lt;pre style=&quot;font-family: &amp;#34;jetbrains mono&amp;#34; ; font-size: 9.8pt&quot;&gt;&lt;b&gt;ApprovalNoticeService&lt;/b&gt;&lt;/pre&gt;&lt;/pre&gt;&lt;hr size=&quot;1&quot;&gt;&lt;p style=&quot;margin: 0px ; margin-left: 4px&quot;&gt;&lt;/p&gt;&lt;div style=&quot;text-align: left&quot;&gt;+&amp;nbsp;&lt;span style=&quot;font-family: &amp;#34;jetbrains mono&amp;#34; ; font-size: 9.8pt&quot;&gt;create&lt;/span&gt;&lt;span&gt;(String,String,String): int&lt;/span&gt;&lt;br&gt;&lt;/div&gt;&lt;div style=&quot;text-align: left&quot;&gt;+&amp;nbsp;&lt;span style=&quot;font-family: &amp;#34;jetbrains mono&amp;#34; ; font-size: 9.8pt&quot;&gt;update&lt;/span&gt;&lt;span&gt;(int,String,String): int&lt;/span&gt;&lt;br&gt;&lt;/div&gt;&lt;div style=&quot;text-align: left&quot;&gt;+&amp;nbsp;&lt;span style=&quot;font-family: &amp;#34;jetbrains mono&amp;#34; ; font-size: 9.8pt&quot;&gt;delete&lt;/span&gt;(int): int&lt;br&gt;&lt;/div&gt;&lt;div style=&quot;text-align: left&quot;&gt;+ &lt;font face=&quot;jetbrains mono&quot;&gt;&lt;span style=&quot;font-size: 13.0667px&quot;&gt;retrieve&lt;/span&gt;&lt;/font&gt;(String): List&amp;lt;ApprovalNoticeForApproval&amp;gt;&lt;br&gt;&lt;/div&gt;&lt;p&gt;&lt;/p&gt;" style="verticalAlign=top;align=center;overflow=fill;fontSize=12;fontFamily=Helvetica;html=1;" parent="WIyWlLk6GJQsqaUBKTNV-1" vertex="1">
          <mxGeometry x="336.25" y="2080" width="290" height="140" as="geometry" />
        </mxCell>
        <mxCell id="xSoCJTcvvkp1Ju8zFOZ0-173" style="edgeStyle=orthogonalEdgeStyle;rounded=0;orthogonalLoop=1;jettySize=auto;html=1;exitX=1;exitY=0.5;exitDx=0;exitDy=0;entryX=0;entryY=0.5;entryDx=0;entryDy=0;endArrow=open;endFill=0;startArrow=diamond;startFill=1;" parent="WIyWlLk6GJQsqaUBKTNV-1" source="xSoCJTcvvkp1Ju8zFOZ0-160" target="xSoCJTcvvkp1Ju8zFOZ0-172" edge="1">
          <mxGeometry relative="1" as="geometry" />
        </mxCell>
        <mxCell id="xSoCJTcvvkp1Ju8zFOZ0-174" style="edgeStyle=orthogonalEdgeStyle;rounded=0;orthogonalLoop=1;jettySize=auto;html=1;exitX=1;exitY=0.5;exitDx=0;exitDy=0;entryX=0.5;entryY=1;entryDx=0;entryDy=0;startArrow=diamond;startFill=1;endArrow=open;endFill=0;" parent="WIyWlLk6GJQsqaUBKTNV-1" source="xSoCJTcvvkp1Ju8zFOZ0-166" target="xSoCJTcvvkp1Ju8zFOZ0-171" edge="1">
          <mxGeometry relative="1" as="geometry" />
        </mxCell>
        <mxCell id="xSoCJTcvvkp1Ju8zFOZ0-175" value="UserInfo" style="swimlane;fontStyle=1;childLayout=stackLayout;horizontal=1;startSize=26;fillColor=none;horizontalStack=0;resizeParent=1;resizeParentMax=0;resizeLast=0;collapsible=1;marginBottom=0;" parent="WIyWlLk6GJQsqaUBKTNV-1" vertex="1">
          <mxGeometry x="1030" y="1970" width="140" height="182" as="geometry" />
        </mxCell>
        <mxCell id="xSoCJTcvvkp1Ju8zFOZ0-176" value="+userId: String" style="text;strokeColor=none;fillColor=none;align=left;verticalAlign=top;spacingLeft=4;spacingRight=4;overflow=hidden;rotatable=0;points=[[0,0.5],[1,0.5]];portConstraint=eastwest;" parent="xSoCJTcvvkp1Ju8zFOZ0-175" vertex="1">
          <mxGeometry y="26" width="140" height="26" as="geometry" />
        </mxCell>
        <mxCell id="xSoCJTcvvkp1Ju8zFOZ0-177" value="+ password: String" style="text;strokeColor=none;fillColor=none;align=left;verticalAlign=top;spacingLeft=4;spacingRight=4;overflow=hidden;rotatable=0;points=[[0,0.5],[1,0.5]];portConstraint=eastwest;" parent="xSoCJTcvvkp1Ju8zFOZ0-175" vertex="1">
          <mxGeometry y="52" width="140" height="26" as="geometry" />
        </mxCell>
        <mxCell id="xSoCJTcvvkp1Ju8zFOZ0-178" value="+type: UserType" style="text;strokeColor=none;fillColor=none;align=left;verticalAlign=top;spacingLeft=4;spacingRight=4;overflow=hidden;rotatable=0;points=[[0,0.5],[1,0.5]];portConstraint=eastwest;" parent="xSoCJTcvvkp1Ju8zFOZ0-175" vertex="1">
          <mxGeometry y="78" width="140" height="26" as="geometry" />
        </mxCell>
        <mxCell id="xSoCJTcvvkp1Ju8zFOZ0-179" value="+ name: String" style="text;strokeColor=none;fillColor=none;align=left;verticalAlign=top;spacingLeft=4;spacingRight=4;overflow=hidden;rotatable=0;points=[[0,0.5],[1,0.5]];portConstraint=eastwest;" parent="xSoCJTcvvkp1Ju8zFOZ0-175" vertex="1">
          <mxGeometry y="104" width="140" height="26" as="geometry" />
        </mxCell>
        <mxCell id="xSoCJTcvvkp1Ju8zFOZ0-180" value="+ phoneNumber: ApplyState" style="text;strokeColor=none;fillColor=none;align=left;verticalAlign=top;spacingLeft=4;spacingRight=4;overflow=hidden;rotatable=0;points=[[0,0.5],[1,0.5]];portConstraint=eastwest;" parent="xSoCJTcvvkp1Ju8zFOZ0-175" vertex="1">
          <mxGeometry y="130" width="140" height="26" as="geometry" />
        </mxCell>
        <mxCell id="xSoCJTcvvkp1Ju8zFOZ0-181" value="+ defaultRegion: int" style="text;strokeColor=none;fillColor=none;align=left;verticalAlign=top;spacingLeft=4;spacingRight=4;overflow=hidden;rotatable=0;points=[[0,0.5],[1,0.5]];portConstraint=eastwest;" parent="xSoCJTcvvkp1Ju8zFOZ0-175" vertex="1">
          <mxGeometry y="156" width="140" height="26" as="geometry" />
        </mxCell>
        <mxCell id="xSoCJTcvvkp1Ju8zFOZ0-186" value="ApprovalNoticeForApproval" style="swimlane;fontStyle=1;childLayout=stackLayout;horizontal=1;startSize=26;fillColor=none;horizontalStack=0;resizeParent=1;resizeParentMax=0;resizeLast=0;collapsible=1;marginBottom=0;" parent="WIyWlLk6GJQsqaUBKTNV-1" vertex="1">
          <mxGeometry x="1030" y="2270" width="170" height="104" as="geometry" />
        </mxCell>
        <mxCell id="xSoCJTcvvkp1Ju8zFOZ0-187" value="+ id: int" style="text;strokeColor=none;fillColor=none;align=left;verticalAlign=top;spacingLeft=4;spacingRight=4;overflow=hidden;rotatable=0;points=[[0,0.5],[1,0.5]];portConstraint=eastwest;" parent="xSoCJTcvvkp1Ju8zFOZ0-186" vertex="1">
          <mxGeometry y="26" width="170" height="26" as="geometry" />
        </mxCell>
        <mxCell id="xSoCJTcvvkp1Ju8zFOZ0-189" value="+ notice: String" style="text;strokeColor=none;fillColor=none;align=left;verticalAlign=top;spacingLeft=4;spacingRight=4;overflow=hidden;rotatable=0;points=[[0,0.5],[1,0.5]];portConstraint=eastwest;" parent="xSoCJTcvvkp1Ju8zFOZ0-186" vertex="1">
          <mxGeometry y="52" width="170" height="26" as="geometry" />
        </mxCell>
        <mxCell id="xSoCJTcvvkp1Ju8zFOZ0-191" value="+ onlyForVolunteer: String" style="text;strokeColor=none;fillColor=none;align=left;verticalAlign=top;spacingLeft=4;spacingRight=4;overflow=hidden;rotatable=0;points=[[0,0.5],[1,0.5]];portConstraint=eastwest;" parent="xSoCJTcvvkp1Ju8zFOZ0-186" vertex="1">
          <mxGeometry y="78" width="170" height="26" as="geometry" />
        </mxCell>
        <mxCell id="xSoCJTcvvkp1Ju8zFOZ0-202" value="ManagerNoticeController" style="swimlane;fontStyle=1;align=center;verticalAlign=top;childLayout=stackLayout;horizontal=1;startSize=26;horizontalStack=0;resizeParent=1;resizeParentMax=0;resizeLast=0;collapsible=1;marginBottom=0;" parent="WIyWlLk6GJQsqaUBKTNV-1" vertex="1">
          <mxGeometry x="-16" y="2520" width="280" height="220" as="geometry">
            <mxRectangle x="310" y="120" width="150" height="26" as="alternateBounds" />
          </mxGeometry>
        </mxCell>
        <mxCell id="xSoCJTcvvkp1Ju8zFOZ0-203" value="+ managerNoticeService: ManagerNoticeService" style="text;strokeColor=none;fillColor=none;align=left;verticalAlign=top;spacingLeft=4;spacingRight=4;overflow=hidden;rotatable=0;points=[[0,0.5],[1,0.5]];portConstraint=eastwest;" parent="xSoCJTcvvkp1Ju8zFOZ0-202" vertex="1">
          <mxGeometry y="26" width="280" height="26" as="geometry" />
        </mxCell>
        <mxCell id="xSoCJTcvvkp1Ju8zFOZ0-204" value="" style="line;strokeWidth=1;fillColor=none;align=left;verticalAlign=middle;spacingTop=-1;spacingLeft=3;spacingRight=3;rotatable=0;labelPosition=right;points=[];portConstraint=eastwest;" parent="xSoCJTcvvkp1Ju8zFOZ0-202" vertex="1">
          <mxGeometry y="52" width="280" height="8" as="geometry" />
        </mxCell>
        <mxCell id="xSoCJTcvvkp1Ju8zFOZ0-205" value="+create(map): CommonResult" style="text;strokeColor=none;fillColor=none;align=left;verticalAlign=top;spacingLeft=4;spacingRight=4;overflow=hidden;rotatable=0;points=[[0,0.5],[1,0.5]];portConstraint=eastwest;" parent="xSoCJTcvvkp1Ju8zFOZ0-202" vertex="1">
          <mxGeometry y="60" width="280" height="40" as="geometry" />
        </mxCell>
        <mxCell id="xSoCJTcvvkp1Ju8zFOZ0-206" value="+ update(map): CommonResult" style="text;strokeColor=none;fillColor=none;align=left;verticalAlign=top;spacingLeft=4;spacingRight=4;overflow=hidden;rotatable=0;points=[[0,0.5],[1,0.5]];portConstraint=eastwest;" parent="xSoCJTcvvkp1Ju8zFOZ0-202" vertex="1">
          <mxGeometry y="100" width="280" height="40" as="geometry" />
        </mxCell>
        <mxCell id="xSoCJTcvvkp1Ju8zFOZ0-207" value="+ delete(map): CommonResult" style="text;strokeColor=none;fillColor=none;align=left;verticalAlign=top;spacingLeft=4;spacingRight=4;overflow=hidden;rotatable=0;points=[[0,0.5],[1,0.5]];portConstraint=eastwest;" parent="xSoCJTcvvkp1Ju8zFOZ0-202" vertex="1">
          <mxGeometry y="140" width="280" height="40" as="geometry" />
        </mxCell>
        <mxCell id="xSoCJTcvvkp1Ju8zFOZ0-208" value="+ retrieve(map): CommonResult" style="text;strokeColor=none;fillColor=none;align=left;verticalAlign=top;spacingLeft=4;spacingRight=4;overflow=hidden;rotatable=0;points=[[0,0.5],[1,0.5]];portConstraint=eastwest;" parent="xSoCJTcvvkp1Ju8zFOZ0-202" vertex="1">
          <mxGeometry y="180" width="280" height="40" as="geometry" />
        </mxCell>
        <mxCell id="xSoCJTcvvkp1Ju8zFOZ0-209" style="edgeStyle=orthogonalEdgeStyle;rounded=0;orthogonalLoop=1;jettySize=auto;html=1;exitX=0.5;exitY=0;exitDx=0;exitDy=0;entryX=0.5;entryY=1;entryDx=0;entryDy=0;dashed=1;endArrow=block;endFill=0;" parent="WIyWlLk6GJQsqaUBKTNV-1" source="xSoCJTcvvkp1Ju8zFOZ0-210" target="xSoCJTcvvkp1Ju8zFOZ0-220" edge="1">
          <mxGeometry relative="1" as="geometry" />
        </mxCell>
        <mxCell id="xSoCJTcvvkp1Ju8zFOZ0-210" value="ApprovalNoticeServiceImpl" style="swimlane;fontStyle=1;align=center;verticalAlign=top;childLayout=stackLayout;horizontal=1;startSize=26;horizontalStack=0;resizeParent=1;resizeParentMax=0;resizeLast=0;collapsible=1;marginBottom=0;" parent="WIyWlLk6GJQsqaUBKTNV-1" vertex="1">
          <mxGeometry x="334.25" y="2740" width="297.5" height="158" as="geometry">
            <mxRectangle x="325" y="320" width="130" height="26" as="alternateBounds" />
          </mxGeometry>
        </mxCell>
        <mxCell id="xSoCJTcvvkp1Ju8zFOZ0-211" value="+ approvalNoticeDao: ApprovalNoticeDao" style="text;strokeColor=none;fillColor=none;align=left;verticalAlign=top;spacingLeft=4;spacingRight=4;overflow=hidden;rotatable=0;points=[[0,0.5],[1,0.5]];portConstraint=eastwest;" parent="xSoCJTcvvkp1Ju8zFOZ0-210" vertex="1">
          <mxGeometry y="26" width="297.5" height="26" as="geometry" />
        </mxCell>
        <mxCell id="xSoCJTcvvkp1Ju8zFOZ0-212" value="" style="line;strokeWidth=1;fillColor=none;align=left;verticalAlign=middle;spacingTop=-1;spacingLeft=3;spacingRight=3;rotatable=0;labelPosition=right;points=[];portConstraint=eastwest;" parent="xSoCJTcvvkp1Ju8zFOZ0-210" vertex="1">
          <mxGeometry y="52" width="297.5" height="8" as="geometry" />
        </mxCell>
        <mxCell id="xSoCJTcvvkp1Ju8zFOZ0-213" value="+ create(String,String): int&#xa;&#xa;" style="text;strokeColor=none;fillColor=none;align=left;verticalAlign=top;spacingLeft=4;spacingRight=4;overflow=hidden;rotatable=0;points=[[0,0.5],[1,0.5]];portConstraint=eastwest;" parent="xSoCJTcvvkp1Ju8zFOZ0-210" vertex="1">
          <mxGeometry y="60" width="297.5" height="26" as="geometry" />
        </mxCell>
        <mxCell id="xSoCJTcvvkp1Ju8zFOZ0-214" value="+ update(int,String): int&#xa;&#xa;" style="text;strokeColor=none;fillColor=none;align=left;verticalAlign=top;spacingLeft=4;spacingRight=4;overflow=hidden;rotatable=0;points=[[0,0.5],[1,0.5]];portConstraint=eastwest;" parent="xSoCJTcvvkp1Ju8zFOZ0-210" vertex="1">
          <mxGeometry y="86" width="297.5" height="24" as="geometry" />
        </mxCell>
        <mxCell id="xSoCJTcvvkp1Ju8zFOZ0-215" value="+ delete(int): int" style="text;strokeColor=none;fillColor=none;align=left;verticalAlign=top;spacingLeft=4;spacingRight=4;overflow=hidden;rotatable=0;points=[[0,0.5],[1,0.5]];portConstraint=eastwest;" parent="xSoCJTcvvkp1Ju8zFOZ0-210" vertex="1">
          <mxGeometry y="110" width="297.5" height="24" as="geometry" />
        </mxCell>
        <mxCell id="xSoCJTcvvkp1Ju8zFOZ0-216" value="+ retrieve(String): List&lt;ManagerNoticeForManager&gt;" style="text;strokeColor=none;fillColor=none;align=left;verticalAlign=top;spacingLeft=4;spacingRight=4;overflow=hidden;rotatable=0;points=[[0,0.5],[1,0.5]];portConstraint=eastwest;" parent="xSoCJTcvvkp1Ju8zFOZ0-210" vertex="1">
          <mxGeometry y="134" width="297.5" height="24" as="geometry" />
        </mxCell>
        <mxCell id="xSoCJTcvvkp1Ju8zFOZ0-218" style="edgeStyle=orthogonalEdgeStyle;rounded=0;orthogonalLoop=1;jettySize=auto;html=1;exitX=1;exitY=0.5;exitDx=0;exitDy=0;entryX=0;entryY=0.5;entryDx=0;entryDy=0;dashed=1;fontColor=#000000;startArrow=diamond;startFill=1;endArrow=open;endFill=0;" parent="WIyWlLk6GJQsqaUBKTNV-1" source="xSoCJTcvvkp1Ju8zFOZ0-219" target="xSoCJTcvvkp1Ju8zFOZ0-232" edge="1">
          <mxGeometry relative="1" as="geometry" />
        </mxCell>
        <mxCell id="xSoCJTcvvkp1Ju8zFOZ0-219" value="&lt;p style=&quot;margin: 0px ; margin-top: 4px ; text-align: center&quot;&gt;&lt;i&gt;&amp;lt;&amp;lt;Interface&amp;gt;&amp;gt;&lt;/i&gt;&lt;br&gt;&lt;/p&gt;&lt;pre style=&quot;text-align: center ; font-family: &amp;#34;jetbrains mono&amp;#34; ; font-size: 9.8pt&quot;&gt;&lt;pre style=&quot;font-family: &amp;#34;jetbrains mono&amp;#34; ; font-size: 9.8pt&quot;&gt;&lt;b&gt;ManagerNoticeDao&lt;/b&gt;&lt;/pre&gt;&lt;/pre&gt;&lt;hr size=&quot;1&quot;&gt;&lt;div&gt;&lt;div&gt;+&amp;nbsp;&lt;span style=&quot;font-family: &amp;#34;jetbrains mono&amp;#34; ; font-size: 9.8pt&quot;&gt;create&lt;/span&gt;(String,String): int&lt;br&gt;&lt;/div&gt;&lt;div&gt;+&amp;nbsp;&lt;span style=&quot;font-family: &amp;#34;jetbrains mono&amp;#34; ; font-size: 9.8pt&quot;&gt;update&lt;/span&gt;(int,String): int&lt;br&gt;&lt;/div&gt;&lt;div&gt;+&amp;nbsp;&lt;span style=&quot;font-family: &amp;#34;jetbrains mono&amp;#34; ; font-size: 9.8pt&quot;&gt;delete&lt;/span&gt;(int): int&lt;br&gt;&lt;/div&gt;&lt;div&gt;+&amp;nbsp;&lt;font face=&quot;jetbrains mono&quot;&gt;&lt;span style=&quot;font-size: 13.0667px&quot;&gt;retrieve&lt;/span&gt;&lt;/font&gt;(String): List&amp;lt;&lt;span style=&quot;font-family: &amp;#34;jetbrains mono&amp;#34; ; font-size: 9.8pt&quot;&gt;ManagerNoticeForManager&lt;/span&gt;&amp;gt;&lt;/div&gt;&lt;/div&gt;" style="verticalAlign=top;align=left;overflow=fill;fontSize=12;fontFamily=Helvetica;html=1;" parent="WIyWlLk6GJQsqaUBKTNV-1" vertex="1">
          <mxGeometry x="664" y="2560" width="310" height="139" as="geometry" />
        </mxCell>
        <mxCell id="xSoCJTcvvkp1Ju8zFOZ0-220" value="&lt;p style=&quot;margin: 4px 0px 0px&quot;&gt;&lt;i&gt;&amp;lt;&amp;lt;Interface&amp;gt;&amp;gt;&lt;/i&gt;&lt;br&gt;&lt;/p&gt;&lt;pre style=&quot;font-family: &amp;#34;jetbrains mono&amp;#34; ; font-size: 9.8pt&quot;&gt;&lt;pre style=&quot;font-family: &amp;#34;jetbrains mono&amp;#34; ; font-size: 9.8pt&quot;&gt;&lt;b&gt;ManagerNoticeService&lt;/b&gt;&lt;/pre&gt;&lt;/pre&gt;&lt;hr size=&quot;1&quot;&gt;&lt;p style=&quot;margin: 0px ; margin-left: 4px&quot;&gt;&lt;/p&gt;&lt;div style=&quot;text-align: left&quot;&gt;+&amp;nbsp;&lt;span style=&quot;font-family: &amp;#34;jetbrains mono&amp;#34; ; font-size: 9.8pt&quot;&gt;create&lt;/span&gt;&lt;span&gt;(String,String): int&lt;/span&gt;&lt;br&gt;&lt;/div&gt;&lt;div style=&quot;text-align: left&quot;&gt;+&amp;nbsp;&lt;span style=&quot;font-family: &amp;#34;jetbrains mono&amp;#34; ; font-size: 9.8pt&quot;&gt;update&lt;/span&gt;&lt;span&gt;(int,String): int&lt;/span&gt;&lt;br&gt;&lt;/div&gt;&lt;div style=&quot;text-align: left&quot;&gt;+&amp;nbsp;&lt;span style=&quot;font-family: &amp;#34;jetbrains mono&amp;#34; ; font-size: 9.8pt&quot;&gt;delete&lt;/span&gt;(int): int&lt;br&gt;&lt;/div&gt;&lt;div style=&quot;text-align: left&quot;&gt;+ &lt;font face=&quot;jetbrains mono&quot;&gt;&lt;span style=&quot;font-size: 13.0667px&quot;&gt;retrieve&lt;/span&gt;&lt;/font&gt;(String): List&amp;lt;&lt;span style=&quot;font-family: &amp;#34;jetbrains mono&amp;#34; ; font-size: 9.8pt&quot;&gt;ManagerNoticeForManager&lt;/span&gt;&lt;span&gt;&amp;gt;&lt;/span&gt;&lt;br&gt;&lt;/div&gt;&lt;p&gt;&lt;/p&gt;" style="verticalAlign=top;align=center;overflow=fill;fontSize=12;fontFamily=Helvetica;html=1;" parent="WIyWlLk6GJQsqaUBKTNV-1" vertex="1">
          <mxGeometry x="325" y="2530" width="313.75" height="140" as="geometry" />
        </mxCell>
        <mxCell id="xSoCJTcvvkp1Ju8zFOZ0-221" style="edgeStyle=orthogonalEdgeStyle;rounded=0;orthogonalLoop=1;jettySize=auto;html=1;exitX=1;exitY=0.5;exitDx=0;exitDy=0;entryX=0;entryY=0.5;entryDx=0;entryDy=0;endArrow=open;endFill=0;startArrow=diamond;startFill=1;" parent="WIyWlLk6GJQsqaUBKTNV-1" source="xSoCJTcvvkp1Ju8zFOZ0-205" target="xSoCJTcvvkp1Ju8zFOZ0-220" edge="1">
          <mxGeometry relative="1" as="geometry" />
        </mxCell>
        <mxCell id="xSoCJTcvvkp1Ju8zFOZ0-222" style="edgeStyle=orthogonalEdgeStyle;rounded=0;orthogonalLoop=1;jettySize=auto;html=1;exitX=1;exitY=0.5;exitDx=0;exitDy=0;entryX=0.5;entryY=1;entryDx=0;entryDy=0;startArrow=diamond;startFill=1;endArrow=open;endFill=0;" parent="WIyWlLk6GJQsqaUBKTNV-1" source="xSoCJTcvvkp1Ju8zFOZ0-213" target="xSoCJTcvvkp1Ju8zFOZ0-219" edge="1">
          <mxGeometry relative="1" as="geometry" />
        </mxCell>
        <mxCell id="xSoCJTcvvkp1Ju8zFOZ0-230" value="ManagerNoticeForManager" style="swimlane;fontStyle=1;childLayout=stackLayout;horizontal=1;startSize=26;fillColor=none;horizontalStack=0;resizeParent=1;resizeParentMax=0;resizeLast=0;collapsible=1;marginBottom=0;" parent="WIyWlLk6GJQsqaUBKTNV-1" vertex="1">
          <mxGeometry x="1040" y="2564" width="170" height="78" as="geometry" />
        </mxCell>
        <mxCell id="xSoCJTcvvkp1Ju8zFOZ0-231" value="+ id: int" style="text;strokeColor=none;fillColor=none;align=left;verticalAlign=top;spacingLeft=4;spacingRight=4;overflow=hidden;rotatable=0;points=[[0,0.5],[1,0.5]];portConstraint=eastwest;" parent="xSoCJTcvvkp1Ju8zFOZ0-230" vertex="1">
          <mxGeometry y="26" width="170" height="26" as="geometry" />
        </mxCell>
        <mxCell id="xSoCJTcvvkp1Ju8zFOZ0-232" value="+ notice: String" style="text;strokeColor=none;fillColor=none;align=left;verticalAlign=top;spacingLeft=4;spacingRight=4;overflow=hidden;rotatable=0;points=[[0,0.5],[1,0.5]];portConstraint=eastwest;" parent="xSoCJTcvvkp1Ju8zFOZ0-230" vertex="1">
          <mxGeometry y="52" width="170" height="26" as="geometry" />
        </mxCell>
        <mxCell id="u5IXZgCUNVyvtNVGKHIC-0" value="UserInfoController" style="swimlane;fontStyle=1;align=center;verticalAlign=top;childLayout=stackLayout;horizontal=1;startSize=26;horizontalStack=0;resizeParent=1;resizeParentMax=0;resizeLast=0;collapsible=1;marginBottom=0;" vertex="1" parent="WIyWlLk6GJQsqaUBKTNV-1">
          <mxGeometry x="-30" y="3010" width="345" height="220" as="geometry">
            <mxRectangle x="310" y="120" width="150" height="26" as="alternateBounds" />
          </mxGeometry>
        </mxCell>
        <mxCell id="u5IXZgCUNVyvtNVGKHIC-1" value="- userInfoService：UserInfoService" style="text;strokeColor=none;fillColor=none;align=left;verticalAlign=top;spacingLeft=4;spacingRight=4;overflow=hidden;rotatable=0;points=[[0,0.5],[1,0.5]];portConstraint=eastwest;" vertex="1" parent="u5IXZgCUNVyvtNVGKHIC-0">
          <mxGeometry y="26" width="345" height="26" as="geometry" />
        </mxCell>
        <mxCell id="u5IXZgCUNVyvtNVGKHIC-2" value="" style="line;strokeWidth=1;fillColor=none;align=left;verticalAlign=middle;spacingTop=-1;spacingLeft=3;spacingRight=3;rotatable=0;labelPosition=right;points=[];portConstraint=eastwest;" vertex="1" parent="u5IXZgCUNVyvtNVGKHIC-0">
          <mxGeometry y="52" width="345" height="8" as="geometry" />
        </mxCell>
        <mxCell id="u5IXZgCUNVyvtNVGKHIC-3" value="+register(UserInfo userInfo): CommonResult" style="text;strokeColor=none;fillColor=none;align=left;verticalAlign=top;spacingLeft=4;spacingRight=4;overflow=hidden;rotatable=0;points=[[0,0.5],[1,0.5]];portConstraint=eastwest;" vertex="1" parent="u5IXZgCUNVyvtNVGKHIC-0">
          <mxGeometry y="60" width="345" height="40" as="geometry" />
        </mxCell>
        <mxCell id="u5IXZgCUNVyvtNVGKHIC-4" value="+ loginByPhone(Map&lt;String,String&gt; map): CommonResult" style="text;strokeColor=none;fillColor=none;align=left;verticalAlign=top;spacingLeft=4;spacingRight=4;overflow=hidden;rotatable=0;points=[[0,0.5],[1,0.5]];portConstraint=eastwest;" vertex="1" parent="u5IXZgCUNVyvtNVGKHIC-0">
          <mxGeometry y="100" width="345" height="40" as="geometry" />
        </mxCell>
        <mxCell id="u5IXZgCUNVyvtNVGKHIC-5" value="+ loginByCardId(Map&lt;String,String&gt; map): CommonResult" style="text;strokeColor=none;fillColor=none;align=left;verticalAlign=top;spacingLeft=4;spacingRight=4;overflow=hidden;rotatable=0;points=[[0,0.5],[1,0.5]];portConstraint=eastwest;" vertex="1" parent="u5IXZgCUNVyvtNVGKHIC-0">
          <mxGeometry y="140" width="345" height="40" as="geometry" />
        </mxCell>
        <mxCell id="u5IXZgCUNVyvtNVGKHIC-6" value="+ updateInfo(Map&lt;String,String&gt; map): CommonResult" style="text;strokeColor=none;fillColor=none;align=left;verticalAlign=top;spacingLeft=4;spacingRight=4;overflow=hidden;rotatable=0;points=[[0,0.5],[1,0.5]];portConstraint=eastwest;" vertex="1" parent="u5IXZgCUNVyvtNVGKHIC-0">
          <mxGeometry y="180" width="345" height="40" as="geometry" />
        </mxCell>
        <mxCell id="u5IXZgCUNVyvtNVGKHIC-7" style="edgeStyle=orthogonalEdgeStyle;rounded=0;orthogonalLoop=1;jettySize=auto;html=1;exitX=0.5;exitY=0;exitDx=0;exitDy=0;entryX=0.5;entryY=1;entryDx=0;entryDy=0;dashed=1;endArrow=block;endFill=0;" edge="1" source="u5IXZgCUNVyvtNVGKHIC-8" target="u5IXZgCUNVyvtNVGKHIC-18" parent="WIyWlLk6GJQsqaUBKTNV-1">
          <mxGeometry relative="1" as="geometry">
            <mxPoint x="645" y="3160" as="targetPoint" />
          </mxGeometry>
        </mxCell>
        <mxCell id="u5IXZgCUNVyvtNVGKHIC-8" value="UserInfoServiceImpl" style="swimlane;fontStyle=1;align=center;verticalAlign=top;childLayout=stackLayout;horizontal=1;startSize=26;horizontalStack=0;resizeParent=1;resizeParentMax=0;resizeLast=0;collapsible=1;marginBottom=0;" vertex="1" parent="WIyWlLk6GJQsqaUBKTNV-1">
          <mxGeometry x="453.75" y="3220" width="377.5" height="200" as="geometry">
            <mxRectangle x="325" y="320" width="130" height="26" as="alternateBounds" />
          </mxGeometry>
        </mxCell>
        <mxCell id="u5IXZgCUNVyvtNVGKHIC-9" value="- userInfoDao: UserInfoDao" style="text;strokeColor=none;fillColor=none;align=left;verticalAlign=top;spacingLeft=4;spacingRight=4;overflow=hidden;rotatable=0;points=[[0,0.5],[1,0.5]];portConstraint=eastwest;" vertex="1" parent="u5IXZgCUNVyvtNVGKHIC-8">
          <mxGeometry y="26" width="377.5" height="26" as="geometry" />
        </mxCell>
        <mxCell id="u5IXZgCUNVyvtNVGKHIC-10" value="" style="line;strokeWidth=1;fillColor=none;align=left;verticalAlign=middle;spacingTop=-1;spacingLeft=3;spacingRight=3;rotatable=0;labelPosition=right;points=[];portConstraint=eastwest;" vertex="1" parent="u5IXZgCUNVyvtNVGKHIC-8">
          <mxGeometry y="52" width="377.5" height="8" as="geometry" />
        </mxCell>
        <mxCell id="u5IXZgCUNVyvtNVGKHIC-11" value="+ register(UserInfo userInfo):boolean&#xa;&#xa;+ loginByCardId(Map&lt;String,String&gt; map):boolean&#xa;&#xa;+ loginByPhoneNumber(Map&lt;String,String&gt; map):boolean&#xa;&#xa;+ updateUserInfo(UserInfo userInfo):boolean&#xa;&#xa;+ updateUserType(UserInfo userInfo):boolean" style="text;strokeColor=none;fillColor=none;align=left;verticalAlign=top;spacingLeft=4;spacingRight=4;overflow=hidden;rotatable=0;points=[[0,0.5],[1,0.5]];portConstraint=eastwest;" vertex="1" parent="u5IXZgCUNVyvtNVGKHIC-8">
          <mxGeometry y="60" width="377.5" height="140" as="geometry" />
        </mxCell>
        <mxCell id="u5IXZgCUNVyvtNVGKHIC-15" value="&lt;p style=&quot;margin: 0px ; margin-top: 4px ; text-align: center&quot;&gt;&lt;i&gt;&amp;lt;&amp;lt;Interface&amp;gt;&amp;gt;&lt;/i&gt;&lt;br&gt;&lt;/p&gt;&lt;pre style=&quot;text-align: center ; font-family: &amp;#34;jetbrains mono&amp;#34; ; font-size: 9.8pt&quot;&gt;&lt;pre style=&quot;font-family: &amp;#34;jetbrains mono&amp;#34; ; font-size: 9.8pt&quot;&gt;&lt;b&gt;UserInfoDao&lt;/b&gt;&lt;/pre&gt;&lt;/pre&gt;&lt;hr size=&quot;1&quot;&gt;&lt;div&gt;&lt;div&gt;+ &lt;font face=&quot;jetbrains mono&quot;&gt;&lt;span style=&quot;font-size: 13.0667px&quot;&gt;register(UserInfo userInf)&lt;/span&gt;&lt;/font&gt;&amp;nbsp;:int&lt;br&gt;&lt;/div&gt;&lt;div&gt;+ &lt;font face=&quot;jetbrains mono&quot;&gt;&lt;span style=&quot;font-size: 13.0667px&quot;&gt;loginByCardId(UserInfo userInfo)&lt;/span&gt;&lt;/font&gt;: int&lt;br&gt;&lt;/div&gt;&lt;div&gt;+&amp;nbsp;&lt;span style=&quot;font-size: 13.0667px&quot;&gt;&lt;font face=&quot;jetbrains mono&quot;&gt;loginByPhoneNumber(UserInfo userInfo)&lt;/font&gt;&lt;/span&gt;: int&lt;br&gt;&lt;/div&gt;&lt;div&gt;+ updateUserInfo(UserInfo userInfo):int&lt;/div&gt;&lt;/div&gt;&lt;div&gt;+&amp;nbsp;updateUserType(UserInfo userInfo):int&lt;/div&gt;" style="verticalAlign=top;align=left;overflow=fill;fontSize=12;fontFamily=Helvetica;html=1;" vertex="1" parent="WIyWlLk6GJQsqaUBKTNV-1">
          <mxGeometry x="890" y="3030" width="330" height="160" as="geometry" />
        </mxCell>
        <mxCell id="u5IXZgCUNVyvtNVGKHIC-17" style="edgeStyle=orthogonalEdgeStyle;rounded=0;orthogonalLoop=1;jettySize=auto;html=1;exitX=1;exitY=0.5;exitDx=0;exitDy=0;entryX=0.5;entryY=1;entryDx=0;entryDy=0;startArrow=diamond;startFill=1;endArrow=open;endFill=0;" edge="1" source="u5IXZgCUNVyvtNVGKHIC-11" target="u5IXZgCUNVyvtNVGKHIC-15" parent="WIyWlLk6GJQsqaUBKTNV-1">
          <mxGeometry relative="1" as="geometry" />
        </mxCell>
        <mxCell id="u5IXZgCUNVyvtNVGKHIC-18" value="&lt;p style=&quot;margin: 4px 0px 0px&quot;&gt;&lt;i&gt;&amp;lt;&amp;lt;Interface&amp;gt;&amp;gt;&lt;/i&gt;&lt;br&gt;&lt;/p&gt;&lt;pre style=&quot;font-family: &amp;#34;jetbrains mono&amp;#34; ; font-size: 9.8pt&quot;&gt;&lt;pre style=&quot;font-family: &amp;#34;jetbrains mono&amp;#34; ; font-size: 9.8pt&quot;&gt;&lt;b&gt;UserInfoService&lt;/b&gt;&lt;/pre&gt;&lt;/pre&gt;&lt;hr size=&quot;1&quot;&gt;&lt;p style=&quot;margin: 0px ; margin-left: 4px&quot;&gt;&lt;/p&gt;&lt;div style=&quot;text-align: left&quot;&gt;+&amp;nbsp;&lt;span style=&quot;background-color: rgb(255 , 255 , 255) ; font-family: &amp;#34;jetbrains mono&amp;#34; , monospace ; font-size: 10.5pt ; text-align: center&quot;&gt;register(UserInfo userInfo):boolean&lt;/span&gt;&lt;br&gt;&lt;/div&gt;&lt;div style=&quot;text-align: left&quot;&gt;+&amp;nbsp;&lt;span style=&quot;background-color: rgb(255 , 255 , 255) ; font-family: &amp;#34;jetbrains mono&amp;#34; , monospace ; font-size: 10.5pt ; text-align: center&quot;&gt;loginByCardId(Map&amp;lt;String,String&amp;gt; map):boolean&lt;/span&gt;&lt;br&gt;&lt;/div&gt;&lt;div style=&quot;text-align: left&quot;&gt;+&amp;nbsp;&lt;span style=&quot;background-color: rgb(255 , 255 , 255) ; font-family: &amp;#34;jetbrains mono&amp;#34; , monospace ; font-size: 10.5pt ; text-align: center&quot;&gt;loginByPhoneNumber(Map&amp;lt;String,String&amp;gt; map):boolean&lt;/span&gt;&lt;br&gt;&lt;/div&gt;&lt;div style=&quot;text-align: left&quot;&gt;+&amp;nbsp;&lt;span style=&quot;background-color: rgb(255 , 255 , 255) ; font-family: &amp;#34;jetbrains mono&amp;#34; , monospace ; font-size: 10.5pt ; text-align: center&quot;&gt;updateUserInfo(UserInfo userInfo):boolean&lt;/span&gt;&lt;br&gt;&lt;/div&gt;&lt;div style=&quot;text-align: left&quot;&gt;+&amp;nbsp;&lt;span style=&quot;background-color: rgb(255 , 255 , 255) ; font-family: &amp;#34;jetbrains mono&amp;#34; , monospace ; font-size: 10.5pt ; text-align: center&quot;&gt;updateUserType(UserInfo userInfo):boolean&lt;/span&gt;&lt;br&gt;&lt;/div&gt;&lt;p&gt;&lt;/p&gt;" style="verticalAlign=top;align=center;overflow=fill;fontSize=12;fontFamily=Helvetica;html=1;" vertex="1" parent="WIyWlLk6GJQsqaUBKTNV-1">
          <mxGeometry x="435" y="2980" width="415" height="160" as="geometry" />
        </mxCell>
        <mxCell id="u5IXZgCUNVyvtNVGKHIC-20" style="edgeStyle=orthogonalEdgeStyle;rounded=0;orthogonalLoop=1;jettySize=auto;html=1;exitX=1.006;exitY=0.377;exitDx=0;exitDy=0;entryX=0.004;entryY=0.538;entryDx=0;entryDy=0;endArrow=open;endFill=0;startArrow=diamond;startFill=1;exitPerimeter=0;entryPerimeter=0;" edge="1" parent="WIyWlLk6GJQsqaUBKTNV-1" source="u5IXZgCUNVyvtNVGKHIC-4" target="u5IXZgCUNVyvtNVGKHIC-18">
          <mxGeometry relative="1" as="geometry">
            <mxPoint x="350" y="3059.66" as="sourcePoint" />
            <mxPoint x="411" y="3059.66" as="targetPoint" />
          </mxGeometry>
        </mxCell>
        <mxCell id="u5IXZgCUNVyvtNVGKHIC-21" value="UserInfoController" style="swimlane;fontStyle=1;align=center;verticalAlign=top;childLayout=stackLayout;horizontal=1;startSize=26;horizontalStack=0;resizeParent=1;resizeParentMax=0;resizeLast=0;collapsible=1;marginBottom=0;" vertex="1" parent="WIyWlLk6GJQsqaUBKTNV-1">
          <mxGeometry x="-30" y="3520" width="345" height="220" as="geometry">
            <mxRectangle x="310" y="120" width="150" height="26" as="alternateBounds" />
          </mxGeometry>
        </mxCell>
        <mxCell id="u5IXZgCUNVyvtNVGKHIC-22" value="- userInfoService：UserInfoService" style="text;strokeColor=none;fillColor=none;align=left;verticalAlign=top;spacingLeft=4;spacingRight=4;overflow=hidden;rotatable=0;points=[[0,0.5],[1,0.5]];portConstraint=eastwest;" vertex="1" parent="u5IXZgCUNVyvtNVGKHIC-21">
          <mxGeometry y="26" width="345" height="26" as="geometry" />
        </mxCell>
        <mxCell id="u5IXZgCUNVyvtNVGKHIC-23" value="" style="line;strokeWidth=1;fillColor=none;align=left;verticalAlign=middle;spacingTop=-1;spacingLeft=3;spacingRight=3;rotatable=0;labelPosition=right;points=[];portConstraint=eastwest;" vertex="1" parent="u5IXZgCUNVyvtNVGKHIC-21">
          <mxGeometry y="52" width="345" height="8" as="geometry" />
        </mxCell>
        <mxCell id="u5IXZgCUNVyvtNVGKHIC-24" value="+register(UserInfo userInfo): CommonResult" style="text;strokeColor=none;fillColor=none;align=left;verticalAlign=top;spacingLeft=4;spacingRight=4;overflow=hidden;rotatable=0;points=[[0,0.5],[1,0.5]];portConstraint=eastwest;" vertex="1" parent="u5IXZgCUNVyvtNVGKHIC-21">
          <mxGeometry y="60" width="345" height="40" as="geometry" />
        </mxCell>
        <mxCell id="u5IXZgCUNVyvtNVGKHIC-25" value="+ loginByPhone(Map&lt;String,String&gt; map): CommonResult" style="text;strokeColor=none;fillColor=none;align=left;verticalAlign=top;spacingLeft=4;spacingRight=4;overflow=hidden;rotatable=0;points=[[0,0.5],[1,0.5]];portConstraint=eastwest;" vertex="1" parent="u5IXZgCUNVyvtNVGKHIC-21">
          <mxGeometry y="100" width="345" height="40" as="geometry" />
        </mxCell>
        <mxCell id="u5IXZgCUNVyvtNVGKHIC-26" value="+ loginByCardId(Map&lt;String,String&gt; map): CommonResult" style="text;strokeColor=none;fillColor=none;align=left;verticalAlign=top;spacingLeft=4;spacingRight=4;overflow=hidden;rotatable=0;points=[[0,0.5],[1,0.5]];portConstraint=eastwest;" vertex="1" parent="u5IXZgCUNVyvtNVGKHIC-21">
          <mxGeometry y="140" width="345" height="40" as="geometry" />
        </mxCell>
        <mxCell id="u5IXZgCUNVyvtNVGKHIC-27" value="+ updateInfo(Map&lt;String,String&gt; map): CommonResult" style="text;strokeColor=none;fillColor=none;align=left;verticalAlign=top;spacingLeft=4;spacingRight=4;overflow=hidden;rotatable=0;points=[[0,0.5],[1,0.5]];portConstraint=eastwest;" vertex="1" parent="u5IXZgCUNVyvtNVGKHIC-21">
          <mxGeometry y="180" width="345" height="40" as="geometry" />
        </mxCell>
        <mxCell id="u5IXZgCUNVyvtNVGKHIC-28" style="edgeStyle=orthogonalEdgeStyle;rounded=0;orthogonalLoop=1;jettySize=auto;html=1;exitX=0.5;exitY=0;exitDx=0;exitDy=0;entryX=0.5;entryY=1;entryDx=0;entryDy=0;dashed=1;endArrow=block;endFill=0;" edge="1" source="u5IXZgCUNVyvtNVGKHIC-29" target="u5IXZgCUNVyvtNVGKHIC-35" parent="WIyWlLk6GJQsqaUBKTNV-1">
          <mxGeometry relative="1" as="geometry">
            <mxPoint x="645" y="3670" as="targetPoint" />
          </mxGeometry>
        </mxCell>
        <mxCell id="u5IXZgCUNVyvtNVGKHIC-29" value="UserInfoServiceImpl" style="swimlane;fontStyle=1;align=center;verticalAlign=top;childLayout=stackLayout;horizontal=1;startSize=26;horizontalStack=0;resizeParent=1;resizeParentMax=0;resizeLast=0;collapsible=1;marginBottom=0;" vertex="1" parent="WIyWlLk6GJQsqaUBKTNV-1">
          <mxGeometry x="453.75" y="3730" width="377.5" height="200" as="geometry">
            <mxRectangle x="325" y="320" width="130" height="26" as="alternateBounds" />
          </mxGeometry>
        </mxCell>
        <mxCell id="u5IXZgCUNVyvtNVGKHIC-30" value="- userInfoDao: UserInfoDao" style="text;strokeColor=none;fillColor=none;align=left;verticalAlign=top;spacingLeft=4;spacingRight=4;overflow=hidden;rotatable=0;points=[[0,0.5],[1,0.5]];portConstraint=eastwest;" vertex="1" parent="u5IXZgCUNVyvtNVGKHIC-29">
          <mxGeometry y="26" width="377.5" height="26" as="geometry" />
        </mxCell>
        <mxCell id="u5IXZgCUNVyvtNVGKHIC-31" value="" style="line;strokeWidth=1;fillColor=none;align=left;verticalAlign=middle;spacingTop=-1;spacingLeft=3;spacingRight=3;rotatable=0;labelPosition=right;points=[];portConstraint=eastwest;" vertex="1" parent="u5IXZgCUNVyvtNVGKHIC-29">
          <mxGeometry y="52" width="377.5" height="8" as="geometry" />
        </mxCell>
        <mxCell id="u5IXZgCUNVyvtNVGKHIC-32" value="+ register(UserInfo userInfo):boolean&#xa;&#xa;+ loginByCardId(Map&lt;String,String&gt; map):boolean&#xa;&#xa;+ loginByPhoneNumber(Map&lt;String,String&gt; map):boolean&#xa;&#xa;+ updateUserInfo(UserInfo userInfo):boolean&#xa;&#xa;+ updateUserType(UserInfo userInfo):boolean" style="text;strokeColor=none;fillColor=none;align=left;verticalAlign=top;spacingLeft=4;spacingRight=4;overflow=hidden;rotatable=0;points=[[0,0.5],[1,0.5]];portConstraint=eastwest;" vertex="1" parent="u5IXZgCUNVyvtNVGKHIC-29">
          <mxGeometry y="60" width="377.5" height="140" as="geometry" />
        </mxCell>
        <mxCell id="u5IXZgCUNVyvtNVGKHIC-33" value="&lt;p style=&quot;margin: 0px ; margin-top: 4px ; text-align: center&quot;&gt;&lt;i&gt;&amp;lt;&amp;lt;Interface&amp;gt;&amp;gt;&lt;/i&gt;&lt;br&gt;&lt;/p&gt;&lt;pre style=&quot;text-align: center ; font-family: &amp;#34;jetbrains mono&amp;#34; ; font-size: 9.8pt&quot;&gt;&lt;pre style=&quot;font-family: &amp;#34;jetbrains mono&amp;#34; ; font-size: 9.8pt&quot;&gt;&lt;b&gt;UserInfoDao&lt;/b&gt;&lt;/pre&gt;&lt;/pre&gt;&lt;hr size=&quot;1&quot;&gt;&lt;div&gt;&lt;div&gt;+ &lt;font face=&quot;jetbrains mono&quot;&gt;&lt;span style=&quot;font-size: 13.0667px&quot;&gt;register(UserInfo userInf)&lt;/span&gt;&lt;/font&gt;&amp;nbsp;:int&lt;br&gt;&lt;/div&gt;&lt;div&gt;+ &lt;font face=&quot;jetbrains mono&quot;&gt;&lt;span style=&quot;font-size: 13.0667px&quot;&gt;loginByCardId(UserInfo userInfo)&lt;/span&gt;&lt;/font&gt;: int&lt;br&gt;&lt;/div&gt;&lt;div&gt;+&amp;nbsp;&lt;span style=&quot;font-size: 13.0667px&quot;&gt;&lt;font face=&quot;jetbrains mono&quot;&gt;loginByPhoneNumber(UserInfo userInfo)&lt;/font&gt;&lt;/span&gt;: int&lt;br&gt;&lt;/div&gt;&lt;div&gt;+ updateUserInfo(UserInfo userInfo):int&lt;/div&gt;&lt;/div&gt;&lt;div&gt;+&amp;nbsp;updateUserType(UserInfo userInfo):int&lt;/div&gt;" style="verticalAlign=top;align=left;overflow=fill;fontSize=12;fontFamily=Helvetica;html=1;" vertex="1" parent="WIyWlLk6GJQsqaUBKTNV-1">
          <mxGeometry x="890" y="3540" width="330" height="160" as="geometry" />
        </mxCell>
        <mxCell id="u5IXZgCUNVyvtNVGKHIC-34" style="edgeStyle=orthogonalEdgeStyle;rounded=0;orthogonalLoop=1;jettySize=auto;html=1;exitX=1;exitY=0.5;exitDx=0;exitDy=0;entryX=0.5;entryY=1;entryDx=0;entryDy=0;startArrow=diamond;startFill=1;endArrow=open;endFill=0;" edge="1" source="u5IXZgCUNVyvtNVGKHIC-32" target="u5IXZgCUNVyvtNVGKHIC-33" parent="WIyWlLk6GJQsqaUBKTNV-1">
          <mxGeometry relative="1" as="geometry" />
        </mxCell>
        <mxCell id="u5IXZgCUNVyvtNVGKHIC-35" value="&lt;p style=&quot;margin: 4px 0px 0px&quot;&gt;&lt;i&gt;&amp;lt;&amp;lt;Interface&amp;gt;&amp;gt;&lt;/i&gt;&lt;br&gt;&lt;/p&gt;&lt;pre style=&quot;font-family: &amp;#34;jetbrains mono&amp;#34; ; font-size: 9.8pt&quot;&gt;&lt;pre style=&quot;font-family: &amp;#34;jetbrains mono&amp;#34; ; font-size: 9.8pt&quot;&gt;&lt;b&gt;UserInfoService&lt;/b&gt;&lt;/pre&gt;&lt;/pre&gt;&lt;hr size=&quot;1&quot;&gt;&lt;p style=&quot;margin: 0px ; margin-left: 4px&quot;&gt;&lt;/p&gt;&lt;div style=&quot;text-align: left&quot;&gt;+&amp;nbsp;&lt;span style=&quot;background-color: rgb(255 , 255 , 255) ; font-family: &amp;#34;jetbrains mono&amp;#34; , monospace ; font-size: 10.5pt ; text-align: center&quot;&gt;register(UserInfo userInfo):boolean&lt;/span&gt;&lt;br&gt;&lt;/div&gt;&lt;div style=&quot;text-align: left&quot;&gt;+&amp;nbsp;&lt;span style=&quot;background-color: rgb(255 , 255 , 255) ; font-family: &amp;#34;jetbrains mono&amp;#34; , monospace ; font-size: 10.5pt ; text-align: center&quot;&gt;loginByCardId(Map&amp;lt;String,String&amp;gt; map):boolean&lt;/span&gt;&lt;br&gt;&lt;/div&gt;&lt;div style=&quot;text-align: left&quot;&gt;+&amp;nbsp;&lt;span style=&quot;background-color: rgb(255 , 255 , 255) ; font-family: &amp;#34;jetbrains mono&amp;#34; , monospace ; font-size: 10.5pt ; text-align: center&quot;&gt;loginByPhoneNumber(Map&amp;lt;String,String&amp;gt; map):boolean&lt;/span&gt;&lt;br&gt;&lt;/div&gt;&lt;div style=&quot;text-align: left&quot;&gt;+&amp;nbsp;&lt;span style=&quot;background-color: rgb(255 , 255 , 255) ; font-family: &amp;#34;jetbrains mono&amp;#34; , monospace ; font-size: 10.5pt ; text-align: center&quot;&gt;updateUserInfo(UserInfo userInfo):boolean&lt;/span&gt;&lt;br&gt;&lt;/div&gt;&lt;div style=&quot;text-align: left&quot;&gt;+&amp;nbsp;&lt;span style=&quot;background-color: rgb(255 , 255 , 255) ; font-family: &amp;#34;jetbrains mono&amp;#34; , monospace ; font-size: 10.5pt ; text-align: center&quot;&gt;updateUserType(UserInfo userInfo):boolean&lt;/span&gt;&lt;br&gt;&lt;/div&gt;&lt;p&gt;&lt;/p&gt;" style="verticalAlign=top;align=center;overflow=fill;fontSize=12;fontFamily=Helvetica;html=1;" vertex="1" parent="WIyWlLk6GJQsqaUBKTNV-1">
          <mxGeometry x="435" y="3490" width="415" height="160" as="geometry" />
        </mxCell>
        <mxCell id="u5IXZgCUNVyvtNVGKHIC-36" style="edgeStyle=orthogonalEdgeStyle;rounded=0;orthogonalLoop=1;jettySize=auto;html=1;exitX=1.006;exitY=0.377;exitDx=0;exitDy=0;entryX=0.004;entryY=0.538;entryDx=0;entryDy=0;endArrow=open;endFill=0;startArrow=diamond;startFill=1;exitPerimeter=0;entryPerimeter=0;" edge="1" source="u5IXZgCUNVyvtNVGKHIC-25" target="u5IXZgCUNVyvtNVGKHIC-35" parent="WIyWlLk6GJQsqaUBKTNV-1">
          <mxGeometry relative="1" as="geometry">
            <mxPoint x="350" y="3569.66" as="sourcePoint" />
            <mxPoint x="411" y="3569.66" as="targetPoint" />
          </mxGeometry>
        </mxCell>
        <mxCell id="u5IXZgCUNVyvtNVGKHIC-37" value=" ReagentDataController " style="swimlane;fontStyle=1;align=center;verticalAlign=top;childLayout=stackLayout;horizontal=1;startSize=26;horizontalStack=0;resizeParent=1;resizeParentMax=0;resizeLast=0;collapsible=1;marginBottom=0;" vertex="1" parent="WIyWlLk6GJQsqaUBKTNV-1">
          <mxGeometry x="-115" y="4040" width="420" height="160" as="geometry">
            <mxRectangle x="310" y="120" width="150" height="26" as="alternateBounds" />
          </mxGeometry>
        </mxCell>
        <mxCell id="u5IXZgCUNVyvtNVGKHIC-38" value="- reagentUserService :ReagentUserService&#xa;- samplingInfoService :SamplingInfoService" style="text;strokeColor=none;fillColor=none;align=left;verticalAlign=top;spacingLeft=4;spacingRight=4;overflow=hidden;rotatable=0;points=[[0,0.5],[1,0.5]];portConstraint=eastwest;" vertex="1" parent="u5IXZgCUNVyvtNVGKHIC-37">
          <mxGeometry y="26" width="420" height="44" as="geometry" />
        </mxCell>
        <mxCell id="u5IXZgCUNVyvtNVGKHIC-39" value="" style="line;strokeWidth=1;fillColor=none;align=left;verticalAlign=middle;spacingTop=-1;spacingLeft=3;spacingRight=3;rotatable=0;labelPosition=right;points=[];portConstraint=eastwest;" vertex="1" parent="u5IXZgCUNVyvtNVGKHIC-37">
          <mxGeometry y="70" width="420" height="8" as="geometry" />
        </mxCell>
        <mxCell id="u5IXZgCUNVyvtNVGKHIC-40" value="+saveReagentInfo(SamplingInfo samplingInfo): CommonResult" style="text;strokeColor=none;fillColor=none;align=left;verticalAlign=top;spacingLeft=4;spacingRight=4;overflow=hidden;rotatable=0;points=[[0,0.5],[1,0.5]];portConstraint=eastwest;" vertex="1" parent="u5IXZgCUNVyvtNVGKHIC-37">
          <mxGeometry y="78" width="420" height="40" as="geometry" />
        </mxCell>
        <mxCell id="u5IXZgCUNVyvtNVGKHIC-41" value="+ saveReagentUserInfo(Map&lt;String, ReagentUser&gt; map): CommonResult" style="text;strokeColor=none;fillColor=none;align=left;verticalAlign=top;spacingLeft=4;spacingRight=4;overflow=hidden;rotatable=0;points=[[0,0.5],[1,0.5]];portConstraint=eastwest;" vertex="1" parent="u5IXZgCUNVyvtNVGKHIC-37">
          <mxGeometry y="118" width="420" height="42" as="geometry" />
        </mxCell>
        <mxCell id="u5IXZgCUNVyvtNVGKHIC-44" value="ReagentResultController" style="swimlane;fontStyle=1;align=center;verticalAlign=top;childLayout=stackLayout;horizontal=1;startSize=26;horizontalStack=0;resizeParent=1;resizeParentMax=0;resizeLast=0;collapsible=1;marginBottom=0;" vertex="1" parent="WIyWlLk6GJQsqaUBKTNV-1">
          <mxGeometry x="-70" y="4300" width="420" height="224" as="geometry">
            <mxRectangle x="310" y="120" width="150" height="26" as="alternateBounds" />
          </mxGeometry>
        </mxCell>
        <mxCell id="u5IXZgCUNVyvtNVGKHIC-45" value="-  ReagentResultService reagentResultService" style="text;strokeColor=none;fillColor=none;align=left;verticalAlign=top;spacingLeft=4;spacingRight=4;overflow=hidden;rotatable=0;points=[[0,0.5],[1,0.5]];portConstraint=eastwest;" vertex="1" parent="u5IXZgCUNVyvtNVGKHIC-44">
          <mxGeometry y="26" width="420" height="24" as="geometry" />
        </mxCell>
        <mxCell id="u5IXZgCUNVyvtNVGKHIC-46" value="" style="line;strokeWidth=1;fillColor=none;align=left;verticalAlign=middle;spacingTop=-1;spacingLeft=3;spacingRight=3;rotatable=0;labelPosition=right;points=[];portConstraint=eastwest;" vertex="1" parent="u5IXZgCUNVyvtNVGKHIC-44">
          <mxGeometry y="50" width="420" height="8" as="geometry" />
        </mxCell>
        <mxCell id="u5IXZgCUNVyvtNVGKHIC-47" value="+checkTestResult(String cardId): CommonResult" style="text;strokeColor=none;fillColor=none;align=left;verticalAlign=top;spacingLeft=4;spacingRight=4;overflow=hidden;rotatable=0;points=[[0,0.5],[1,0.5]];portConstraint=eastwest;" vertex="1" parent="u5IXZgCUNVyvtNVGKHIC-44">
          <mxGeometry y="58" width="420" height="40" as="geometry" />
        </mxCell>
        <mxCell id="u5IXZgCUNVyvtNVGKHIC-48" value="+ saveTestResultOnce(ReagentResult reagentResult): CommonResult" style="text;strokeColor=none;fillColor=none;align=left;verticalAlign=top;spacingLeft=4;spacingRight=4;overflow=hidden;rotatable=0;points=[[0,0.5],[1,0.5]];portConstraint=eastwest;" vertex="1" parent="u5IXZgCUNVyvtNVGKHIC-44">
          <mxGeometry y="98" width="420" height="42" as="geometry" />
        </mxCell>
        <mxCell id="u5IXZgCUNVyvtNVGKHIC-49" value="+ saveTestResultBatch( Map&lt;Integer,ReagentResult&gt; reagentResultMap): CommonResult" style="text;strokeColor=none;fillColor=none;align=left;verticalAlign=top;spacingLeft=4;spacingRight=4;overflow=hidden;rotatable=0;points=[[0,0.5],[1,0.5]];portConstraint=eastwest;" vertex="1" parent="u5IXZgCUNVyvtNVGKHIC-44">
          <mxGeometry y="140" width="420" height="42" as="geometry" />
        </mxCell>
        <mxCell id="u5IXZgCUNVyvtNVGKHIC-50" value="+ resultManage(ReagentResult reagentResult): CommonResult" style="text;strokeColor=none;fillColor=none;align=left;verticalAlign=top;spacingLeft=4;spacingRight=4;overflow=hidden;rotatable=0;points=[[0,0.5],[1,0.5]];portConstraint=eastwest;" vertex="1" parent="u5IXZgCUNVyvtNVGKHIC-44">
          <mxGeometry y="182" width="420" height="42" as="geometry" />
        </mxCell>
      </root>
    </mxGraphModel>
  </diagram>
</mxfile>
